<?xml version="1.0" encoding="UTF-8"?>
<svg width="26px" height="26px" viewBox="0 0 26 26" version="1.1" xmlns="http://www.w3.org/2000/svg" xmlns:xlink="http://www.w3.org/1999/xlink">
    <title>TMM_Icon_monochrome</title>
    <g id="Page-1" stroke="none" stroke-width="1" fill="none" fill-rule="evenodd">
        <g id="TMM_Icon_monochrome" fill="#D8D8D8">
            <path d="M26,13 C26,20.1797 20.1797,26 13,26 C5.8203,26 0,20.1797 0,13 C0,5.8203 5.8203,0 13,0 C20.1797,0 26,5.8203 26,13 Z M15.0056,12.4505 L15.0056,8.4 L13.5762,12.4505 L12.2087,12.4505 L10.7866,8.44375 L10.7866,12.4505 L9.14197,12.4505 L9.14197,5.90625 L11.4393,5.90625 L12.9052,9.89115 L14.3091,5.90625 L16.6721,5.90625 L16.6721,12.4505 L15.0056,12.4505 Z M15.0056,16.2532 L15.0056,20.3037 L16.6721,20.3037 L16.6721,13.7594 L14.3091,13.7594 L12.9052,17.7443 L11.4393,13.7594 L9.14197,13.7594 L9.14197,20.3037 L10.7866,20.3037 L10.7866,16.2969 L12.2087,20.3037 L13.5762,20.3037 L15.0056,16.2532 Z" id="Shape"></path>
        </g>
    </g>
</svg>