<svg xmlns="http://www.w3.org/2000/svg" width="8" height="8" viewBox="0 0 8 8">
  <path fill="#3D3652" fill-rule="evenodd" d="M2.75,2.72848411e-12 C3.02614237,2.72848411e-12 3.25,0.223857625 3.25,0.5 C3.25,0.776142375 3.02614237,1 2.75,1 L1,1 L1,7 L7,7 L7,5.25 C7,4.97385763 7.22385763,4.75 7.5,4.75 C7.77614237,4.75 8,4.97385763 8,5.25 L8,7.5 C8,7.77614237 7.77614237,8 7.5,8 L0.5,8 C0.223857625,8 0,7.77614237 0,7.5 L0,0.5 C0,0.223857625 0.223857625,2.72848411e-12 0.5,2.72848411e-12 L2.75,2.72848411e-12 Z M7.5,0 C7.77614237,0 8,0.223857625 8,0.5 L8,2.75 C8,3.02614237 7.77614237,3.25 7.5,3.25 C7.22385763,3.25 7,3.02614237 7,2.75 L7,1.70710678 L3.85355339,4.85355339 C3.65829124,5.04881554 3.34170876,5.04881554 3.14644661,4.85355339 C2.95118446,4.65829124 2.95118446,4.34170876 3.14644661,4.14644661 L6.29289322,1 L5.25,1 C4.97385763,1 4.75,0.776142375 4.75,0.5 C4.75,0.223857625 4.97385763,0 5.25,0 L7.5,0 Z"/>
</svg>
