<svg width="70" height="90" viewBox="0 0 70 90" fill="none" xmlns="http://www.w3.org/2000/svg">
<g clip-path="url(#clip0_2680_27925)">
<path d="M21.7266 1.7503H20.8825L19.5728 1.7472C19.4828 1.7472 18.7783 1.7534 18.7783 1.7534L18.7659 2.76823H18.6387L18.6449 1.62927V1.16064C19.0856 1.17927 20.6994 1.19168 22.3721 1.19168C24.3242 1.19168 25.5811 1.17306 26.0745 1.16064L26.0683 1.67892L26.0776 2.8334H25.9442C25.9442 2.7372 25.9225 2.35547 25.9225 2.31823C25.9225 2.30582 25.8945 1.79064 25.8914 1.7503L25.3328 1.74409H23.6538H23.0114V8.86651C23.0114 8.86651 23.0238 9.33513 23.0269 9.42823C23.0921 9.43754 23.7128 9.47478 23.8276 9.47478H23.8711V9.6672C23.8369 9.6672 23.7966 9.6703 23.7625 9.6672C23.4087 9.66409 22.8376 9.62685 22.4342 9.62685C22.0307 9.62685 21.4721 9.66099 21.0563 9.6672C21.0438 9.6672 20.9601 9.6672 20.929 9.66409V9.45616C20.929 9.45616 20.9569 9.45616 20.9973 9.45616C21.1742 9.44995 21.6056 9.42513 21.7173 9.41582H21.7359V8.80444L21.7297 1.74099L21.7266 1.7503Z" fill="white"/>
<path d="M32.4753 1.15137C32.4753 1.15137 33.1053 2.90482 33.2077 3.1593C33.3101 3.41688 35.2374 7.85171 35.2374 7.85171C35.2374 7.85171 36.1436 5.93999 36.9474 3.89171C37.1119 3.47585 37.326 2.93585 37.4812 2.49826C37.7108 1.85585 37.9653 1.15447 37.9653 1.15447H38.4619C38.4619 1.15447 38.586 1.93654 38.6294 2.28723C38.7567 3.30206 39.5853 7.42654 39.877 8.78275C39.9484 9.12102 40.0043 9.41585 40.0043 9.41585C40.0881 9.42206 40.4232 9.44999 40.625 9.46551C40.6653 9.46551 40.777 9.47482 40.8019 9.47482V9.67964C40.8019 9.67964 40.7119 9.68275 40.6622 9.68275C40.2184 9.68275 39.5263 9.6455 39.0981 9.6455C38.7194 9.6455 38.3532 9.67344 37.9715 9.68275C37.9063 9.68275 37.8412 9.68275 37.776 9.68275V9.48102C37.776 9.48102 37.8288 9.48102 37.8567 9.48102C38.0429 9.47482 38.5332 9.43137 38.5829 9.42826C38.5829 9.35378 38.555 9.09619 38.5146 8.83551C38.4867 8.6493 38.4401 8.33275 38.3905 8.0224C38.2819 7.41723 37.7822 4.90344 37.6332 4.20516C37.6084 4.09033 37.5929 4.02516 37.5929 4.02516C37.5929 4.02516 36.0412 7.58482 35.7277 8.2862C35.6967 8.35447 35.675 8.40413 35.6688 8.41964C35.3708 9.09619 35.1194 9.69826 35.1194 9.69826H34.6788L32.2612 4.13688L32.2053 4.00654C32.2053 4.00654 31.9943 5.0493 31.6901 6.52033C31.5288 7.31482 31.1967 9.30102 31.1719 9.43137C31.3643 9.45619 31.7429 9.48413 31.8453 9.48102C31.8701 9.48102 31.9105 9.48102 31.9384 9.48102V9.68275C31.895 9.68895 31.7957 9.68895 31.7894 9.68895C31.4232 9.68275 31.1625 9.65792 30.7684 9.65792C30.666 9.65792 30.1167 9.68275 29.9243 9.68895C29.8436 9.69206 29.7288 9.68275 29.707 9.68585V9.48723C29.7257 9.48723 29.7629 9.48102 29.7877 9.47792C29.9615 9.47171 30.2315 9.44689 30.4581 9.41895C30.4767 9.32275 30.6722 8.34206 30.7374 7.99447C30.9794 6.84619 31.6901 3.01033 31.7801 2.49206C31.8577 1.93344 31.9477 1.23826 31.957 1.16068C32.1463 1.16378 32.4722 1.15757 32.4722 1.15757" fill="white"/>
<path d="M29.2625 9.68271C28.9336 9.68271 28.3781 9.63306 27.9622 9.63306C27.5463 9.63306 26.9908 9.68271 26.5874 9.68271C26.5532 9.68271 26.4912 9.67651 26.4601 9.67651V9.47478C26.5408 9.47478 26.8946 9.44375 26.9939 9.43754C27.1088 9.43133 27.2174 9.42513 27.2639 9.40961C27.2639 9.40961 27.2639 9.16444 27.2639 8.78892C27.267 7.48237 27.2763 3.78927 27.2639 2.11651C27.2639 1.93961 27.2639 1.49271 27.2639 1.42754C27.1894 1.42133 27.0839 1.41202 27.0063 1.40271C26.9132 1.39961 26.5222 1.36547 26.457 1.36237V1.16064C26.8419 1.16064 27.4129 1.19478 27.8784 1.19478C28.3439 1.19478 28.9274 1.16064 29.3836 1.16064V1.37168C29.3091 1.37478 29.1353 1.3872 29.1291 1.3872C28.9957 1.39961 28.6232 1.43685 28.5332 1.44306C28.5332 1.5703 28.5332 1.80306 28.5332 2.09478C28.5332 3.59064 28.5332 7.5072 28.5332 8.82616C28.5332 8.99995 28.5332 9.15823 28.5332 9.25444C28.5332 9.35685 28.5332 9.41582 28.5332 9.41892C28.5332 9.42513 28.7691 9.44685 28.8219 9.44995C28.9243 9.45926 29.3494 9.47789 29.3619 9.48099H29.3898V9.68271C29.3619 9.68271 29.2936 9.68892 29.2657 9.68892" fill="white"/>
<path d="M43.1509 1.76902V5.12075L45.5561 5.12696C45.5685 5.12696 46.1923 5.10833 46.2078 5.10833C46.245 5.10833 46.6764 5.08661 46.6919 5.0804C46.6919 5.0804 46.6981 5.04627 46.7075 5.01833C46.7416 4.81661 46.785 4.6242 46.7975 4.47213C46.7975 4.47213 46.8099 4.40696 46.8099 4.36351H46.9464C46.9464 4.36351 46.9526 4.41627 46.9526 4.46902C46.9526 4.67075 46.934 5.08971 46.934 5.36592C46.934 5.76316 46.9464 6.12006 46.9495 6.30006C46.9495 6.34971 46.9495 6.43351 46.9495 6.43351H46.8006C46.8006 6.41489 46.7944 6.39627 46.7912 6.37454C46.7633 6.14489 46.7447 5.98351 46.7044 5.75075C46.7044 5.73833 46.695 5.69799 46.6919 5.67006C46.6144 5.66695 46.4126 5.65764 46.304 5.65764C46.2575 5.65764 45.6709 5.65144 45.0099 5.65144C44.7399 5.65144 44.2526 5.66385 44.0478 5.66385C43.8057 5.66385 43.4085 5.67627 43.1478 5.68558V8.72385L43.1602 9.11489L44.6219 9.13661H46.7012C46.7012 9.13661 47.1761 9.11799 47.325 9.12109C47.3561 9.12109 47.4181 9.11799 47.4181 9.11799C47.4306 9.01868 47.4492 8.82006 47.4647 8.63075C47.4647 8.60902 47.5175 8.10316 47.5175 7.96971H47.6447C47.6447 8.09696 47.6168 9.68902 47.6168 9.68902C47.3809 9.68902 46.664 9.68902 45.7733 9.67661C45.2333 9.6704 44.6344 9.6704 44.0416 9.66109C43.5606 9.65489 43.0857 9.63937 42.6544 9.63937C42.0368 9.63937 41.4347 9.67661 41.1988 9.67661C41.1461 9.67661 41.0499 9.67351 41.0312 9.67351V9.47489H41.0747C41.2206 9.47489 41.6457 9.45006 41.8661 9.41592C41.8661 9.37558 41.8816 8.87902 41.8816 8.86971C41.8816 8.86971 41.8816 2.57592 41.8816 2.29351C41.8816 1.98937 41.8754 1.48351 41.8754 1.43695C41.7512 1.42454 41.7047 1.41523 41.6799 1.41213C41.5464 1.39661 41.2826 1.37489 41.143 1.36558C41.1026 1.36558 41.0592 1.36247 41.0375 1.35937C41.0375 1.35937 41.0375 1.16385 41.0375 1.16075C41.0685 1.16075 41.1337 1.16075 41.2516 1.16075C41.4999 1.16075 41.9561 1.19489 42.5147 1.19489C42.8654 1.19489 43.4302 1.17937 43.8368 1.17627C44.414 1.17627 44.8516 1.17006 45.4133 1.16695C46.3257 1.16075 47.1078 1.15454 47.4119 1.15454C47.5019 1.15454 47.5485 1.15454 47.5485 1.15454C47.5485 1.17006 47.5485 1.18868 47.5485 1.2073C47.5485 1.26937 47.5485 1.38109 47.5485 1.51764C47.5485 1.94282 47.564 2.60695 47.564 2.8242H47.4368V2.76523C47.4244 2.61627 47.3964 2.1973 47.3592 1.84351C47.3561 1.81247 47.3499 1.78764 47.3499 1.78764C47.2723 1.78764 46.9619 1.77523 46.9557 1.77213C46.9495 1.76902 46.7012 1.76592 46.6981 1.76282C46.6981 1.76282 45.8788 1.75661 45.0378 1.75661C44.4637 1.75661 43.8988 1.75661 43.5512 1.75661C43.4675 1.75661 43.1602 1.76592 43.1602 1.76592" fill="white"/>
<path d="M20.948 85.2827H2.37695V85.4379H20.948V85.2827Z" fill="white"/>
<path d="M66.9285 85.2827H48.3574V85.4379H66.9285V85.2827Z" fill="white"/>
<g filter="url(#filter0_d_2680_27925)">
<path d="M2.42773 41.3318H5.82291L9.58429 47.3835L13.3457 41.3318H16.7408V55.6449H13.6126V46.3004L9.58429 52.4142H9.5036L5.51567 46.3625V55.6449H2.42773V41.3318Z" fill="white"/>
<path d="M21.6289 48.5318V48.4914C21.6289 44.4228 24.8379 41.0897 29.2572 41.0897C33.6765 41.0897 36.8451 44.3825 36.8451 48.4511V48.4914C36.8451 52.5601 33.6361 55.8932 29.2168 55.8932C24.7975 55.8932 21.6289 52.6004 21.6289 48.5318ZM33.5524 48.5318V48.4914C33.5524 46.0366 31.7524 43.9914 29.2168 43.9914C26.6813 43.9914 24.9217 45.9963 24.9217 48.448V48.4883C24.9217 50.9432 26.7217 52.9883 29.2572 52.9883C31.7927 52.9883 33.5524 50.9835 33.5524 48.5318Z" fill="white"/>
<path d="M40.748 53.5593L42.6101 51.331C43.898 52.3955 45.248 53.069 46.8836 53.069C48.1715 53.069 48.9474 52.5569 48.9474 51.719V51.6786C48.9474 50.881 48.457 50.4714 46.0643 49.86C43.1811 49.1245 41.3191 48.3269 41.3191 45.4841V45.4438C41.3191 42.8462 43.4046 41.13 46.328 41.13C48.4136 41.13 50.1918 41.7848 51.6443 42.9486L50.0087 45.3197C48.7394 44.4414 47.4949 43.9076 46.2877 43.9076C45.0805 43.9076 44.4474 44.46 44.4474 45.1552V45.1955C44.4474 46.1359 45.0618 46.4431 47.5353 47.0762C50.4401 47.8335 52.0756 48.8762 52.0756 51.3714V51.4117C52.0756 54.2545 49.9094 55.8497 46.8215 55.8497C44.6553 55.8497 42.4643 55.0924 40.748 53.5593Z" fill="white"/>
<path d="M60.2361 44.2366H55.8789V41.3318H67.7403V44.2366H63.383V55.648H60.233V44.2366H60.2361Z" fill="white"/>
<path d="M2.24414 60.8586H3.59724V67.0066H2.24414V60.8586Z" fill="white"/>
<path d="M5.60271 60.8586H6.8503L9.7303 64.6448V60.8586H11.0648V67.0066H9.9134L6.93409 63.0962V67.0066H5.59961V60.8586H5.60271Z" fill="white"/>
<path d="M13.0078 60.8586H17.6909V62.0876H14.3609V63.3973H17.2937V64.6262H14.3609V67.0066H13.0078V60.8586Z" fill="white"/>
<path d="M19.2383 60.8586H20.5914V65.7776H23.6576V67.0066H19.2383V60.8586Z" fill="white"/>
<path d="M25.048 64.3748V60.8617H26.4011V64.3407C26.4011 65.3431 26.9008 65.8613 27.7263 65.8613C28.5518 65.8613 29.0515 65.3617 29.0515 64.3841V60.8617H30.4046V64.3313C30.4046 66.1934 29.3587 67.1058 27.7077 67.1058C26.0566 67.1058 25.0449 66.1841 25.0449 64.3748H25.048Z" fill="white"/>
<path d="M32.252 60.8586H36.8885V62.0628H33.5957V63.3104H36.4944V64.5145H33.5957V65.8055H36.9351V67.0097H32.252V60.8617V60.8586Z" fill="white"/>
<path d="M38.6066 60.8586H39.8542L42.7342 64.6448V60.8586H44.0687V67.0066H42.9173L39.938 63.0962V67.0066H38.6035V60.8586H38.6066Z" fill="white"/>
<path d="M47.4456 62.1062H45.5742V60.8586H50.6701V62.1062H48.7987V67.0066H47.4456V62.1062Z" fill="white"/>
<path d="M52.2344 60.8586H53.5875V67.0066H52.2344V60.8586Z" fill="white"/>
<path d="M57.6993 60.8152H58.9469L61.5817 67.0066H60.1665L59.6048 65.6286H57.0041L56.4424 67.0066H55.0645L57.6993 60.8152ZM59.1238 64.4338L58.3076 62.4383L57.4914 64.4338H59.1238Z" fill="white"/>
<path d="M63 60.8586H64.3531V65.7776H67.4193V67.0066H63V60.8586Z" fill="white"/>
<path d="M23.8543 35.8728H23.7116C23.4633 35.8728 22.3119 35.8076 21.7843 35.7704C21.6416 35.7611 21.5298 35.6432 21.5267 35.5004C21.5174 35.159 21.5019 34.6159 21.4957 34.3739V13.9563C21.4957 13.8539 21.4088 13.7825 21.3033 13.7856C19.916 13.8011 19.8043 13.7701 18.3426 13.7732C18.2433 13.7732 18.1471 13.8073 18.085 13.8849L15.9126 16.6532C15.8847 16.6873 15.8691 16.7308 15.8691 16.7773C15.8691 17.0349 16.1826 17.1652 16.3688 16.9852L17.9143 15.4552C17.9671 15.4025 18.0571 15.4397 18.0571 15.5111V35.7052L18.0167 35.7114C17.7157 35.7332 16.5519 35.8014 16.0802 35.817C16.0398 35.817 16.0026 35.817 15.9747 35.8201C15.9312 35.8201 15.894 35.8573 15.894 35.9008V36.3197C15.894 36.3632 15.9312 36.3973 15.9747 36.4004C16.0771 36.4035 16.2198 36.4066 16.2416 36.4066C17.365 36.3911 18.8857 36.298 19.9626 36.298C21.0395 36.298 22.5974 36.4004 23.5533 36.4097C23.6216 36.4097 23.6991 36.4066 23.7705 36.4035C23.814 36.4035 23.8512 36.3663 23.8512 36.3228V35.8852L23.8543 35.8728Z" fill="white"/>
<path d="M25.93 34.7338C24.8686 33.5359 24.3379 31.9345 24.3379 29.9266V20.2842C24.3379 18.239 24.8593 16.6314 25.8989 15.4645C26.9386 14.2945 28.5338 13.7111 30.6782 13.7111C32.8227 13.7111 34.3838 14.2976 35.4265 15.4645C36.4662 16.6345 36.9875 18.2421 36.9875 20.2842V29.9266C36.9875 31.9531 36.4631 33.5607 35.411 34.7493C34.3589 35.938 32.7824 36.5307 30.6782 36.5307C28.5741 36.5307 26.9913 35.9317 25.93 34.7338ZM33.6389 29.9731V20.2345C33.6389 18.959 33.4341 17.9473 33.0213 17.1962C32.6086 16.4483 31.8451 16.0728 30.7248 16.0728C29.6044 16.0728 28.8348 16.4483 28.4127 17.1962C27.9907 17.9442 27.7796 18.959 27.7796 20.2345V29.9731C27.7796 32.7476 28.7603 34.1349 30.7248 34.1349C32.6893 34.1349 33.6389 32.7476 33.6389 29.9731Z" fill="white"/>
<path d="M40.7913 34.7338C39.7299 33.5359 39.1992 31.9345 39.1992 29.9266V20.2842C39.1992 18.239 39.7206 16.6314 40.7603 15.4645C41.7999 14.2945 43.3951 13.7111 45.5396 13.7111C47.684 13.7111 49.2451 14.2976 50.2878 15.4645C51.3275 16.6345 51.8489 18.2421 51.8489 20.2842V29.9266C51.8489 31.9531 51.3244 33.5607 50.2723 34.7493C49.2203 35.938 47.6437 36.5307 45.5396 36.5307C43.4354 36.5307 41.8527 35.9317 40.7913 34.7338ZM48.5003 29.9731V20.2345C48.5003 18.959 48.2954 17.9473 47.8827 17.1962C47.4699 16.4483 46.7065 16.0728 45.5861 16.0728C44.4658 16.0728 43.6961 16.4483 43.274 17.1962C42.852 17.9442 42.6409 18.959 42.6409 20.2345V29.9731C42.6409 32.7476 43.6216 34.1349 45.5861 34.1349C47.5506 34.1349 48.5003 32.7476 48.5003 29.9731Z" fill="white"/>
</g>
<path d="M2.08789 75.1314V75.1128C2.08789 73.2756 3.47203 71.7704 5.45513 71.7704C6.67168 71.7704 7.40099 72.1769 8.00306 72.7666L7.09996 73.8094C6.6003 73.3563 6.09444 73.08 5.44892 73.08C4.35961 73.08 3.57444 73.9831 3.57444 75.0911V75.1097C3.57444 76.2176 4.34099 77.1394 5.44892 77.1394C6.18755 77.1394 6.64065 76.8445 7.14651 76.3821L8.04961 77.2945C7.38548 78.0052 6.64686 78.449 5.40237 78.449C3.49996 78.449 2.08789 76.9811 2.08789 75.1252V75.1314Z" fill="white"/>
<path d="M9.82812 75.1314V75.1128C9.82812 73.2756 11.2774 71.7704 13.2698 71.7704C15.2623 71.7704 16.693 73.2569 16.693 75.0942V75.1128C16.693 76.95 15.2436 78.4552 13.2512 78.4552C11.2588 78.4552 9.82812 76.9687 9.82812 75.1314ZM15.2095 75.1314V75.1128C15.2095 74.0049 14.3964 73.0831 13.2512 73.0831C12.1061 73.0831 11.3116 73.9862 11.3116 75.0942V75.1128C11.3116 76.2207 12.1247 77.1425 13.2698 77.1425C14.415 77.1425 15.2095 76.2394 15.2095 75.1314Z" fill="white"/>
<path d="M18.8867 71.8821H20.4198L22.1174 74.6131L23.815 71.8821H25.3481V78.3435H23.936V74.1259L22.1174 76.8848H22.0802L20.2802 74.1538V78.3435H18.8867V71.8821Z" fill="white"/>
<path d="M27.8281 71.8821H30.4692C32.0116 71.8821 32.9426 72.7945 32.9426 74.1166V74.1352C32.9426 75.631 31.7788 76.4069 30.3295 76.4069H29.2495V78.3435H27.8281V71.8821ZM30.3761 75.1407C31.0867 75.1407 31.5026 74.7155 31.5026 74.1631V74.1445C31.5026 73.5083 31.0588 73.1669 30.3481 73.1669H29.2495V75.1407H30.3761Z" fill="white"/>
<path d="M37.1394 71.8356H38.449L41.2173 78.3435H39.7308L39.1411 76.8942H36.4101L35.8204 78.3435H34.3711L37.1394 71.8356ZM38.6352 75.6373L37.7756 73.5425L36.919 75.6373H38.6352Z" fill="white"/>
<path d="M43.1476 71.8821H44.4573L47.4832 75.8607V71.8821H48.8859V78.3435H47.6756L44.5473 74.2376V78.3435H43.1445V71.8821H43.1476Z" fill="white"/>
<path d="M51.4297 71.8821H52.8511V78.3435H51.4297V71.8821Z" fill="white"/>
<path d="M55.4004 71.8821H60.2728V73.1452H56.8125V74.4548H59.8569V75.7179H56.8125V77.0741H60.3194V78.3372H55.4004V71.8759V71.8821Z" fill="white"/>
<path d="M62.0684 77.4031L62.9094 76.3976C63.4897 76.8787 64.1011 77.1828 64.8366 77.1828C65.417 77.1828 65.7677 76.9532 65.7677 76.5745V76.5559C65.7677 76.1959 65.5473 76.0097 64.4673 75.7335C63.167 75.4014 62.3259 75.0414 62.3259 73.7597V73.7411C62.3259 72.568 63.2663 71.7921 64.5884 71.7921C65.5287 71.7921 66.3325 72.0869 66.9873 72.6145L66.2487 73.6852C65.6777 73.288 65.1128 73.049 64.5697 73.049C64.0266 73.049 63.738 73.2973 63.738 73.6107V73.6294C63.738 74.0545 64.0142 74.1911 65.1315 74.4797C66.4411 74.8211 67.1797 75.2928 67.1797 76.4163V76.4349C67.1797 77.7166 66.2022 78.4366 64.8087 78.4366C63.8311 78.4366 62.8442 78.0952 62.0684 77.4031Z" fill="white"/>
<path d="M26.3203 86.7011L27.5865 85.6645C28.0582 85.2735 28.2445 85.0687 28.2445 84.7521C28.2445 84.4356 28.0334 84.2587 27.7355 84.2587C27.4376 84.2587 27.242 84.4232 26.9596 84.7707L26.3731 84.299C26.7486 83.787 27.1117 83.5107 27.7913 83.5107C28.5796 83.5107 29.101 83.9732 29.101 84.6838V84.6932C29.101 85.3294 28.7751 85.6428 28.1017 86.1642L27.481 86.6421H29.1382V87.3652H26.3234V86.7011H26.3203Z" fill="white"/>
<path d="M30.6035 85.4752V85.4659C30.6035 84.3642 31.2894 83.4983 32.298 83.4983C33.3066 83.4983 33.9832 84.3517 33.9832 85.4535V85.4628C33.9832 86.5645 33.3035 87.4304 32.2887 87.4304C31.2739 87.4304 30.6035 86.5769 30.6035 85.4752ZM33.1235 85.4752V85.4659C33.1235 84.7769 32.7852 84.2555 32.2856 84.2555C31.7859 84.2555 31.4601 84.7614 31.4601 85.4566V85.4659C31.4601 86.1611 31.7921 86.6762 32.298 86.6762C32.8039 86.6762 33.1235 86.1642 33.1235 85.4752Z" fill="white"/>
<path d="M35.4102 86.7011L36.6764 85.6645C37.1481 85.2735 37.3343 85.0687 37.3343 84.7521C37.3343 84.4356 37.1233 84.2587 36.8253 84.2587C36.5274 84.2587 36.3319 84.4232 36.0495 84.7707L35.4629 84.299C35.8384 83.787 36.2015 83.5107 36.8812 83.5107C37.6695 83.5107 38.1908 83.9732 38.1908 84.6838V84.6932C38.1908 85.3294 37.865 85.6428 37.1915 86.1642L36.5708 86.6421H38.2281V87.3652H35.4133V86.7011H35.4102Z" fill="white"/>
<path d="M39.6055 86.7724L40.1827 86.2231C40.4434 86.5148 40.7165 86.6793 41.1013 86.6793C41.4148 86.6793 41.6382 86.4993 41.6382 86.2169V86.2075C41.6382 85.8972 41.362 85.7234 40.8934 85.7234H40.5458L40.4155 85.1896L41.3217 84.2772H39.8289V83.5603H42.3986V84.1903L41.4365 85.1089C41.9517 85.1958 42.4575 85.4658 42.4575 86.1734V86.1827C42.4575 86.8996 41.9362 87.4272 41.0889 87.4272C40.4031 87.4272 39.9313 87.1572 39.6055 86.7693V86.7724Z" fill="white"/>
</g>
<defs>
<filter id="filter0_d_2680_27925" x="0.244141" y="13.7111" width="69.4961" height="57.3948" filterUnits="userSpaceOnUse" color-interpolation-filters="sRGB">
<feFlood flood-opacity="0" result="BackgroundImageFix"/>
<feColorMatrix in="SourceAlpha" type="matrix" values="0 0 0 0 0 0 0 0 0 0 0 0 0 0 0 0 0 0 127 0" result="hardAlpha"/>
<feOffset dy="2"/>
<feGaussianBlur stdDeviation="1"/>
<feColorMatrix type="matrix" values="0 0 0 0 0.00392157 0 0 0 0 0.00392157 0 0 0 0 0.00392157 0 0 0 0.3 0"/>
<feBlend mode="normal" in2="BackgroundImageFix" result="effect1_dropShadow_2680_27925"/>
<feBlend mode="normal" in="SourceGraphic" in2="effect1_dropShadow_2680_27925" result="shape"/>
</filter>
<clipPath id="clip0_2680_27925">
<rect width="69.8276" height="90" fill="white"/>
</clipPath>
</defs>
</svg>
