<svg width="48" height="48" viewBox="0 0 48 48" fill="none" xmlns="http://www.w3.org/2000/svg">
<g clip-path="url(#clip0_1175_4781)">
<path d="M24 48C37.2548 48 48 37.2548 48 24C48 10.7452 37.2548 0 24 0C10.7452 0 0 10.7452 0 24C0 37.2548 10.7452 48 24 48Z" fill="#FFF7EA"/>
<path d="M31 33V17C31 16.4696 30.7893 15.9609 30.4142 15.5858C30.0391 15.2107 29.5304 15 29 15H19C18.4696 15 17.9609 15.2107 17.5858 15.5858C17.2107 15.9609 17 16.4696 17 17V33M31 33H17M31 33H33M31 33H26M17 33H15M17 33H22M26 33V28C26 27.7348 25.8946 27.4804 25.7071 27.2929C25.5196 27.1054 25.2652 27 25 27H23C22.7348 27 22.4804 27.1054 22.2929 27.2929C22.1054 27.4804 22 27.7348 22 28V33M26 33H22M21 19H22M21 23H22M26 19H27M26 23H27" stroke="#FFA876" stroke-width="2" stroke-linecap="round" stroke-linejoin="round"/>
</g>
<defs>
<clipPath id="clip0_1175_4781">
<rect width="48" height="48" fill="white"/>
</clipPath>
</defs>
</svg>
