<svg width="48" height="48" viewBox="0 0 48 48" fill="none" xmlns="http://www.w3.org/2000/svg">
<g clip-path="url(#clip0_1175_4205)">
<path d="M24 48C37.2548 48 48 37.2548 48 24C48 10.7452 37.2548 0 24 0C10.7452 0 0 10.7452 0 24C0 37.2548 10.7452 48 24 48Z" fill="#F1F8FF"/>
<path fill-rule="evenodd" clip-rule="evenodd" d="M17.0487 28.786L16.2739 29.4864C16.0415 29.7198 15.6541 29.642 15.4992 29.4086C15.0343 28.7082 14.337 27.3852 14.1046 25.5953C13.8722 23.9611 14.0271 22.249 14.5695 20.6148C15.0343 19.214 15.8091 17.8911 16.8938 16.8794C17.901 15.8677 19.2181 15.0895 20.5352 14.5447C21.6973 14.1556 22.8595 14 23.9442 14C27.1207 14 29.3675 15.4786 30.2198 16.2568C30.4522 16.4903 30.4522 16.8016 30.2198 17.035L29.445 17.7354C29.2901 17.8911 28.9802 17.8911 28.8252 17.7354C27.4306 16.6459 25.7261 16.0233 23.9442 16.0233C22.937 16.0233 21.8523 16.2568 20.8451 16.6459C18.8307 17.4241 17.2811 18.9805 16.5064 21.0039C15.964 22.3268 15.8091 23.7276 16.0415 25.0506C16.1965 26.1401 16.5839 27.2296 17.1262 28.1634C17.2811 28.3969 17.2811 28.6303 17.0487 28.786ZM20.6901 24.0389C20.6901 23.8833 20.6901 23.8054 20.6901 23.6498H19.4505C19.2181 23.6498 19.0631 23.4163 19.1406 23.1829L19.6054 22.5603C19.6829 22.4825 19.7604 22.4047 19.9154 22.4047H20.9226C21.0775 21.6265 21.3099 21.0039 21.7748 20.4591C22.4721 19.5253 23.4018 19.1362 24.4865 19.1362C25.7261 19.1362 26.6558 19.7588 27.3531 20.9261C27.4306 21.0817 27.3531 21.3152 27.1982 21.393L26.5009 21.7043C26.3459 21.7821 26.191 21.7043 26.1135 21.5486C25.8036 20.9261 25.1838 20.537 24.4865 20.537C23.5568 20.537 22.8595 21.2374 22.5496 22.4047H24.8739C25.1063 22.4047 25.2613 22.6381 25.1838 22.8716L24.7189 23.4942C24.6414 23.572 24.564 23.6498 24.409 23.6498H22.3171C22.3171 23.8054 22.3171 23.8833 22.3171 24.0389C22.3171 24.1946 22.3171 24.2724 22.3171 24.428H24.8739C25.1063 24.428 25.2613 24.6615 25.1838 24.8949L24.7189 25.5175C24.6414 25.5953 24.564 25.6732 24.409 25.6732H22.5496C22.627 25.9844 22.782 26.2957 22.937 26.5292C23.3243 27.1518 23.8667 27.5409 24.564 27.5409C25.2613 27.5409 25.8036 27.0739 26.191 26.4514C26.2685 26.2957 26.4234 26.2179 26.5784 26.2957L27.2757 26.607C27.4306 26.6848 27.5081 26.8405 27.4306 27.0739C26.8108 28.3191 25.8036 28.9416 24.564 28.9416C22.782 28.9416 21.4649 27.6187 21 25.751H19.4505C19.2181 25.751 19.0631 25.5175 19.1406 25.284L19.6054 24.6615C19.6829 24.5837 19.7604 24.5058 19.9154 24.5058H20.7676C20.6901 24.2724 20.6901 24.1167 20.6901 24.0389ZM31.072 31.1206C30.0648 32.1323 28.7477 32.9883 27.4306 33.4553C26.2685 33.8444 25.1063 34 24.0216 34C20.7676 34 18.5983 32.5214 17.746 31.7432C17.5136 31.5097 17.5136 31.1984 17.746 30.965L18.5208 30.2646C18.6757 30.1089 18.9856 30.1089 19.1406 30.2646C20.5352 31.3541 22.2397 31.9767 24.0216 31.9767C25.0288 31.9767 26.1135 31.7432 27.1207 31.3541C29.1351 30.5759 30.6846 29.0195 31.4594 26.9961C32.0017 25.6732 32.1567 24.2724 31.9243 22.9494C31.7693 21.8599 31.3819 20.7704 30.8396 19.8366C30.6846 19.6031 30.7621 19.3696 30.9171 19.214L31.6918 18.5136C31.9243 18.2802 32.3117 18.358 32.4666 18.5914C32.854 19.214 33.5513 20.537 33.8612 22.4047C34.1711 24.0389 33.9387 25.751 33.3963 27.3852C32.9315 28.8638 32.1567 30.1089 31.072 31.1206Z" fill="#1AA3FF"/>
</g>
<defs>
<clipPath id="clip0_1175_4205">
<rect width="48" height="48" fill="white"/>
</clipPath>
</defs>
</svg>
