<svg width="48" height="48" viewBox="0 0 48 48" fill="none" xmlns="http://www.w3.org/2000/svg">
<g clip-path="url(#clip0_1175_6847)">
<path d="M24 48C37.2548 48 48 37.2548 48 24C48 10.7452 37.2548 0 24 0C10.7452 0 0 10.7452 0 24C0 37.2548 10.7452 48 24 48Z" fill="#F6F2FF"/>
<path d="M17.121 29.804C19.2194 28.6179 21.5896 27.9963 24 28C26.5 28 28.847 28.655 30.879 29.804M27 22C27 22.7956 26.6839 23.5587 26.1213 24.1213C25.5587 24.6839 24.7956 25 24 25C23.2044 25 22.4413 24.6839 21.8787 24.1213C21.3161 23.5587 21 22.7956 21 22C21 21.2044 21.3161 20.4413 21.8787 19.8787C22.4413 19.3161 23.2044 19 24 19C24.7956 19 25.5587 19.3161 26.1213 19.8787C26.6839 20.4413 27 21.2044 27 22ZM33 24C33 25.1819 32.7672 26.3522 32.3149 27.4442C31.8626 28.5361 31.1997 29.5282 30.364 30.364C29.5282 31.1997 28.5361 31.8626 27.4442 32.3149C26.3522 32.7672 25.1819 33 24 33C22.8181 33 21.6478 32.7672 20.5558 32.3149C19.4639 31.8626 18.4718 31.1997 17.636 30.364C16.8003 29.5282 16.1374 28.5361 15.6851 27.4442C15.2328 26.3522 15 25.1819 15 24C15 21.6131 15.9482 19.3239 17.636 17.636C19.3239 15.9482 21.6131 15 24 15C26.3869 15 28.6761 15.9482 30.364 17.636C32.0518 19.3239 33 21.6131 33 24Z" stroke="#9F72FF" stroke-width="2" stroke-linecap="round" stroke-linejoin="round"/>
</g>
<defs>
<clipPath id="clip0_1175_6847">
<rect width="48" height="48" fill="white"/>
</clipPath>
</defs>
</svg>
