<?xml version="1.0" encoding="UTF-8"?>
<svg width="40px" height="40px" viewBox="0 0 40 40" version="1.1" xmlns="http://www.w3.org/2000/svg" xmlns:xlink="http://www.w3.org/1999/xlink">
    <title>checkmark</title>
    <g id="Program-pages" stroke="none" stroke-width="1" fill="none" fill-rule="evenodd">
        <g id="USDC-Multichain-Authorized-Distributors-Program---Success---3-Cards" transform="translate(-492.000000, -213.000000)" fill="#62E2A4">
            <g id="title" transform="translate(202.000000, 209.000000)">
                <g id="Navigation-(Trade)/Active-Copy" transform="translate(286.000000, 0.000000)">
                    <path d="M24,4 C35.045695,4 44,12.954305 44,24 C44,35.045695 35.045695,44 24,44 C12.954305,44 4,35.045695 4,24 C4,12.954305 12.954305,4 24,4 Z M33.2130439,16.4098665 C32.3348374,15.7399209 31.0798121,15.9087496 30.4098665,16.7869561 L30.4098665,16.7869561 L21.2040116,28.8545645 L17.4964679,24.67313 C16.7636578,23.8466536 15.4996064,23.7707221 14.67313,24.5035321 C13.8466536,25.2363422 13.7707221,26.5003936 14.5035321,27.32687 L14.5035321,27.32687 L19.8235395,33.32687 C20.6588657,34.2689659 22.1464735,34.2141066 22.9101408,33.2130439 L22.9101408,33.2130439 L33.5901335,19.2130439 C34.2600791,18.3348374 34.0912504,17.0798121 33.2130439,16.4098665 Z" id="🎨-Icon-color"></path>
                </g>
            </g>
        </g>
    </g>
</svg>