<?xml version="1.0" encoding="UTF-8"?>
<svg width="341px" height="283px" viewBox="0 0 341 283" version="1.1" xmlns="http://www.w3.org/2000/svg" xmlns:xlink="http://www.w3.org/1999/xlink">
    <title>bg-chemistry</title>
    <defs>
        <linearGradient x1="100%" y1="15.583872%" x2="0%" y2="84.416128%" id="linearGradient-1">
            <stop stop-color="#FFF6E9" offset="0%"></stop>
            <stop stop-color="#FFE8F4" offset="100%"></stop>
        </linearGradient>
        <linearGradient x1="0%" y1="84.3151636%" x2="100%" y2="15.6848364%" id="linearGradient-2">
            <stop stop-color="#FBE0FD" offset="0%"></stop>
            <stop stop-color="#F1F8FF" offset="100%"></stop>
        </linearGradient>
    </defs>
    <g id="careers" stroke="none" stroke-width="1" fill="none" fill-rule="evenodd">
        <g transform="translate(-69.000000, -1774.000000)" id="Group-18">
            <g transform="translate(1.000000, 1774.000000)">
                <g id="Group-3" transform="translate(64.000000, 0.000000)">
                    <g id="left" transform="translate(0.000000, 0.100000)">
                        <g id="MAKE/Backgrounds/Chemistry/Bold-&amp;-even-(full)" transform="translate(33.695200, 0.300000)">
                            <path d="M170.549824,248.139137 L171.700175,248.325126 L168.446699,268.445239 L190.062457,278.934787 L189.553707,279.983154 L167.158397,269.11519 L170.549824,248.139137 Z M118.233676,228.241532 L124.846819,245.225102 L137.399697,233.489491 L138.195523,234.340702 L124.385758,247.251913 L117.774095,230.272693 L102.126591,244.990297 L113.800917,261.852779 L112.842832,262.516083 L100.597954,244.829434 L118.233676,228.241532 Z M60.0776586,187.661485 L63.5325079,205.628399 L38.8012773,205.627991 L59.610285,231.32731 L34.6213847,235.474545 L28.1166541,246.534124 L27.1122302,245.943335 L33.8936458,234.413977 L57.4453227,230.505169 L37.3402311,205.674883 L17.7416674,208.863201 L17.5545946,207.713026 L36.4952311,204.631883 L36.3585208,204.46311 L37.2032311,204.462883 L43.6938868,190.188358 L44.754714,190.670587 L38.4842311,204.462883 L62.1210459,204.462702 L58.9333332,187.881527 L60.0776586,187.661485 Z M143.032247,193.17754 L158.997986,207.656334 L155.639489,233.531979 L134.874814,214.487024 L135.662469,213.628246 L154.772612,231.1554 L157.76391,208.110057 L142.249441,194.040739 L143.032247,193.17754 Z M215.658899,196.353296 L219.366926,216.011301 L233.60008,204.892058 L242.989762,216.972307 L233.390017,226.648644 L254.312077,231.720126 L254.037554,232.852617 L231.108248,227.294404 L241.441,216.878276 L233.396426,206.529342 L218.576807,218.107659 L214.513806,196.569307 L215.658899,196.353296 Z M90.1605622,198.331004 L90.8827386,199.245531 L78.8633393,208.7364 L92.4453857,221.67451 L91.6416507,222.518257 L77.0875805,208.654367 L90.1605622,198.331004 Z M181.388254,121.51889 L181.472799,122.681108 L162.033529,124.095032 L169.947231,153.328883 L187.592984,175.664326 L196.966142,160.249497 L197.961807,160.85493 L187.717525,177.702164 L170.124133,155.431991 L172.250203,186.808569 L192.738116,190.548242 L188.611342,221.309791 L187.4564,221.154851 L191.434943,191.49478 L171.149355,187.792019 L168.889231,154.446883 L132.466231,169.634883 L156.080023,174.622254 L155.839244,175.762396 L130.572467,170.42635 L101.097339,182.993289 L100.640334,181.921353 L129.785231,169.494883 L120.778626,143.548009 L134.594001,130.481428 L141.962902,147.108753 L140.897548,147.580897 L134.196517,132.460644 L122.126451,143.876983 L130.860876,169.041987 L168.720542,153.254648 L160.539703,123.03551 L181.388254,121.51889 Z M119.08142,195.597142 L120.190336,195.955197 L114.584686,213.316246 L105.504654,198.502118 L106.498169,197.893163 L114.253757,210.546677 L119.08142,195.597142 Z M210.016476,175.333474 L226.362014,175.505277 L243.162715,190.117991 L261.494446,180.82544 L260.070526,196.461703 L258.910039,196.356023 L260.142728,182.816871 L242.989596,191.511923 L225.920513,176.665892 L210.004229,176.498699 L210.016476,175.333474 Z M19.9160375,166.077378 L20.6955749,166.94353 L0.55131583,185.073364 L-25.6407689,180.372311 L-25.434908,179.225349 L0.19582686,183.825429 L19.9160375,166.077378 Z M60.361685,153.113743 L80.1709221,178.988318 L79.2456589,179.696688 L60.2204591,154.84585 L45.5006947,168.689695 L44.7023656,167.840831 L60.361685,153.113743 Z M297.939094,46.6758864 L309.428931,71.7913777 L264.677231,91.9878832 L288.70636,105.749057 L284.683231,127.873883 L294.548218,145.631475 L293.529572,146.19739 L283.942595,128.94147 L266.298231,146.981883 L284.035102,164.998464 L266.180767,166.427086 L266.087823,165.265509 L281.452372,164.035904 L265.466934,147.799346 L246.601941,165.605222 L245.802105,164.757778 L265.065766,146.576785 L282.939231,128.299883 L262.01023,123.226865 L262.284753,122.094374 L283.609905,127.263454 L287.412244,106.35059 L262.549183,92.1121068 L281.299719,65.8760157 L241.046848,77.3766204 L240.726729,76.2561639 L281.109231,64.7178832 L254.207378,51.8029245 L254.71173,50.752435 L282.796231,64.2358832 L284.188079,63.8390674 L265.129231,90.5048832 L307.881715,71.2107099 L296.879428,47.1606624 L297.939094,46.6758864 Z M234.410967,147.280597 L219.672486,161.397847 L208.172866,148.056649 L234.410967,147.280597 Z M99.4092454,124.368157 L106.9743,137.322449 L94.3249798,139.719813 L103.018617,160.359092 L101.944693,160.811407 L92.6921454,138.843214 L93.0985128,138.766024 L99.4092454,124.368157 Z M231.4166,148.534644 L210.65231,149.148751 L219.753219,159.706272 L231.4166,148.534644 Z M17.5899469,134.428268 L27.8930193,152.560079 L5.16336409,158.467538 L4.87024253,157.339717 L26.1287566,151.81435 L16.5768002,135.003971 L17.5899469,134.428268 Z M81.226711,119.554315 L82.2723444,120.068659 L75.2602649,134.322193 L80.4883169,153.1002 L79.3657137,153.412708 L74.0192093,134.206773 L81.226711,119.554315 Z M242.089839,112.661956 L231.2051,128.115863 L245.403556,132.171898 L247.444557,148.499313 L246.288267,148.643854 L244.342571,133.079995 L229.30778,128.786102 L239.683162,114.054317 L220.384654,115.838466 L220.277402,114.678123 L242.089839,112.661956 Z M200.714847,118.609057 L217.427058,132.455844 L193.585094,141.189264 L200.714847,118.609057 Z M201.30436,120.610817 L195.409162,139.279917 L215.121777,132.059202 L201.30436,120.610817 Z M99.5571285,126.932512 L94.4857897,138.503251 L105.135368,136.48497 L99.5571285,126.932512 Z M60.0196871,83.9370941 L65.0202311,103.860883 L65.5126076,103.958016 L48.4130489,129.734775 L42.4831044,99.4312732 L63.7572311,103.612883 L58.8894584,84.2207877 L60.0196871,83.9370941 Z M43.9594302,100.908689 L49.0109591,126.723925 L63.5782401,104.765214 L43.9594302,100.908689 Z M142.150515,61.6055768 L143.036551,62.3624389 L127.505426,80.5440942 L150.265899,89.6376257 L136.81041,105.605999 L136.748231,105.592883 L117.614231,121.798883 L143.373752,120.305512 L154.295554,104.235118 L180.875695,108.630185 L180.685594,109.779864 L154.840199,105.505755 L144.014604,121.435774 L115.596713,123.083896 L99.0321624,96.8309019 L136.363372,104.327648 L148.334389,90.1204413 L125.563798,81.023145 L142.150515,61.6055768 Z M101.468203,98.5081934 L116.040231,121.603883 L135.290231,105.300883 L101.468203,98.5081934 Z M37.4424919,8.03192566 L61.7796916,37.281057 L21.7302311,54.6198832 L62.2122087,60.8027313 L62.1232311,61.3778832 L62.2357197,61.9506048 L41.4837731,66.0012843 L41.4372311,84.4908832 L41.6660607,84.8103895 L28.7132311,94.1358832 L28.9701776,109.759048 L27.8050455,109.778185 L27.5568186,94.6586603 L5.50123113,102.408883 L5.57878843,102.473723 L-16.3393542,108.318725 L-16.6396136,107.192784 L3.09390124,101.930065 L-16.167025,85.9901322 L-15.4240832,85.0923925 L4.45423113,101.542883 L27.8562311,93.3178832 L40.0440583,84.541619 L18.7487787,54.6423392 L59.8883517,36.8294331 L36.5467337,8.77725534 L37.4424919,8.03192566 Z M214.772248,70.1023829 L226.962231,98.2199574 L195.528767,98.5633022 L214.772248,70.1023829 Z M214.547872,72.514086 L197.73974,97.3732017 L225.19512,97.0731397 L214.547872,72.514086 Z M172.336225,67.1881914 L168.442499,92.4350881 L154.422514,75.0765214 L172.336225,67.1881914 Z M170.860013,69.1108587 L156.28574,75.5286893 L167.692174,89.6514124 L170.860013,69.1108587 Z M20.9142311,55.6748832 L40.2762311,82.8598832 L40.3209469,65.041819 L58.7252311,61.4478832 L20.9142311,55.6748832 Z M129.947404,4.1440338 L161.278422,30.2432182 L171.110945,15.2206423 L172.085968,15.8587874 L161.537453,31.9758805 L129.822604,5.55656529 L106.417231,18.9218832 L88.2632311,48.6148832 L106.011461,70.1852441 L81.3400837,78.6336675 L87.2076539,47.3318105 L87.4802311,47.6628832 L105.017231,18.9788832 L71.1960153,15.6166795 L71.3112863,14.4571056 L105.870083,17.8923174 L129.947404,4.1440338 Z M235.159446,1.99188324 L235.98343,2.81586717 L214.734231,24.0638832 L193.422231,47.7318832 L186.797626,77.2466928 L185.660632,76.9914593 L192.135281,48.1478876 L162.528445,52.293497 L133.155331,38.5062843 L117.776318,61.0059632 L110.56225,48.4224229 L132.945125,37.1210049 L162.70998,51.0914083 L192.597231,46.9068832 L213.602231,23.5808832 L205.161884,8.07774892 L206.18534,7.52058001 L214.449405,22.7008835 L235.159446,1.99188324 Z M87.8931657,49.9989496 L82.8532897,76.883338 L104.043492,69.6270818 L87.8931657,49.9989496 Z M131.195314,39.3097512 L112.18362,48.9088215 L117.862657,58.8143628 L131.195314,39.3097512 Z" id="Sticks" fill="url(#linearGradient-1)"></path>
                            <path d="M189.80814,277.268926 C191.017711,277.268926 191.998302,278.249517 191.998302,279.459087 C191.998302,280.668657 191.017711,281.649248 189.80814,281.649248 C188.59857,281.649248 187.617979,280.668657 187.617979,279.459087 C187.617979,278.249517 188.59857,277.268926 189.80814,277.268926 Z M167.802818,262.971992 C171.010277,262.971992 173.61062,265.572335 173.61062,268.780376 C173.61062,271.987252 171.010277,274.587595 167.802818,274.587595 C164.594777,274.587595 161.994434,271.987252 161.994434,268.780376 C161.994434,265.572335 164.594777,262.971992 167.802818,262.971992 Z M113.32205,259.994678 C114.53162,259.994678 115.512211,260.974686 115.512211,262.184256 C115.512211,263.393826 114.53162,264.374417 113.32205,264.374417 C112.112479,264.374417 111.131888,263.393826 111.131888,262.184256 C111.131888,260.974686 112.112479,259.994678 113.32205,259.994678 Z M171.125058,243.952723 C173.487682,243.952723 175.404,245.868459 175.404,248.232248 C175.404,250.595455 173.487682,252.51119 171.125058,252.51119 C168.761269,252.51119 166.845533,250.595455 166.845533,248.232248 C166.845533,245.868459 168.761269,243.952723 171.125058,243.952723 Z M101.362686,238.322628 C105.000719,238.322628 107.950066,241.271975 107.950066,244.910008 C107.950066,248.548041 105.000719,251.497971 101.362686,251.497971 C97.7246529,251.497971 94.7753058,248.548041 94.7753058,244.910008 C94.7753058,241.271975 97.7246529,238.322628 101.362686,238.322628 Z M124.616616,241.959496 C126.979822,241.959496 128.895558,243.875231 128.895558,246.239021 C128.895558,248.602227 126.979822,250.517963 124.616616,250.517963 C122.253409,250.517963 120.337674,248.602227 120.337674,246.239021 C120.337674,243.875231 122.253409,241.959496 124.616616,241.959496 Z M27.6138595,244.048277 C28.8240124,244.048277 29.8040207,245.02945 29.8040207,246.239021 C29.8040207,247.448008 28.8240124,248.429182 27.6138595,248.429182 C26.4048719,248.429182 25.424281,247.448008 25.424281,246.239021 C25.424281,245.02945 26.4048719,244.048277 27.6138595,244.048277 Z M58.5278182,219.899405 C64.6117934,219.899405 69.5444628,224.832074 69.5444628,230.91605 C69.5444628,237.000607 64.6117934,241.932694 58.5278182,241.932694 C52.4432603,241.932694 47.5111736,237.000607 47.5111736,230.91605 C47.5111736,224.832074 52.4432603,219.899405 58.5278182,219.899405 Z M34.2583388,230.720864 C36.5900826,230.720864 38.4807645,232.611545 38.4807645,234.943872 C38.4807645,237.276198 36.5900826,239.166298 34.2583388,239.166298 C31.9260124,239.166298 30.0353306,237.276198 30.0353306,234.943872 C30.0353306,232.611545 31.9260124,230.720864 34.2583388,230.720864 Z M155.206041,226.031157 C158.692587,226.031157 161.518996,228.857566 161.518996,232.344112 C161.518996,235.830657 158.692587,238.657066 155.206041,238.657066 C151.719496,238.657066 148.893087,235.830657 148.893087,232.344112 C148.893087,228.857566 151.719496,226.031157 155.206041,226.031157 Z M254.17464,226.339376 C257.459591,226.339376 260.121694,229.002062 260.121694,232.28643 C260.121694,235.570798 257.459591,238.233483 254.17464,238.233483 C250.890273,238.233483 248.228169,235.570798 248.228169,232.28643 C248.228169,229.002062 250.890273,226.339376 254.17464,226.339376 Z M188.033988,205.784839 C196.565653,205.784839 203.482227,212.700831 203.482227,221.232496 C203.482227,229.764744 196.565653,236.680736 188.033988,236.680736 C179.502322,236.680736 172.585748,229.764744 172.585748,221.232496 C172.585748,212.700831 179.502322,205.784839 188.033988,205.784839 Z M137.797785,231.725343 C139.007355,231.725343 139.987946,232.705934 139.987946,233.915504 C139.987946,235.125074 139.007355,236.105665 137.797785,236.105665 C136.588215,236.105665 135.607624,235.125074 135.607624,233.915504 C135.607624,232.705934 136.588215,231.725343 137.797785,231.725343 Z M118.004182,223.94762 C120.936632,223.94762 123.313822,226.32481 123.313822,229.257843 C123.313822,232.190293 120.936632,234.567483 118.004182,234.567483 C115.071731,234.567483 112.693959,232.190293 112.693959,229.257843 C112.693959,226.32481 115.071731,223.94762 118.004182,223.94762 Z M232.249723,223.045686 C234.417744,223.045686 236.175,224.802942 236.175,226.971545 C236.175,229.138983 234.417744,230.89624 232.249723,230.89624 C230.081702,230.89624 228.324446,229.138983 228.324446,226.971545 C228.324446,224.802942 230.081702,223.045686 232.249723,223.045686 Z M92.0432851,213.53343 C96.7720289,213.53343 100.605831,217.367231 100.605831,222.096558 C100.605831,226.824719 96.7720289,230.658521 92.0432851,230.658521 C87.3145413,230.658521 83.4813223,226.824719 83.4813223,222.096558 C83.4813223,217.367231 87.3145413,213.53343 92.0432851,213.53343 Z M135.268525,206.609281 C139.382579,206.609281 142.717054,209.943756 142.717054,214.05781 C142.717054,218.171281 139.382579,221.506339 135.268525,221.506339 C131.155054,221.506339 127.819996,218.171281 127.819996,214.05781 C127.819996,209.943756 131.155054,206.609281 135.268525,206.609281 Z M218.971835,214.868851 C220.181405,214.868851 221.161996,215.850025 221.161996,217.059595 C221.161996,218.268583 220.181405,219.249756 218.971835,219.249756 C217.762264,219.249756 216.781674,218.268583 216.781674,217.059595 C216.781674,215.850025 217.762264,214.868851 218.971835,214.868851 Z M242.21586,214.734843 C243.42543,214.734843 244.405438,215.715434 244.405438,216.925587 C244.405438,218.134574 243.42543,219.115165 242.21586,219.115165 C241.005707,219.115165 240.025698,218.134574 240.025698,216.925587 C240.025698,215.715434 241.005707,214.734843 242.21586,214.734843 Z M114.419169,208.046083 C116.56505,208.046083 118.304826,209.786442 118.304826,211.93174 C118.304826,214.07762 116.56505,215.817397 114.419169,215.817397 C112.273289,215.817397 110.534095,214.07762 110.534095,211.93174 C110.534095,209.786442 112.273289,208.046083 114.419169,208.046083 Z M158.380872,202.175355 C161.534145,202.175355 164.089624,204.730835 164.089624,207.883525 C164.089624,211.036215 161.534145,213.592277 158.380872,213.592277 C155.228764,213.592277 152.672702,211.036215 152.672702,207.883525 C152.672702,204.730835 155.228764,202.175355 158.380872,202.175355 Z M77.9753306,206.504988 C79.1849008,206.504988 80.1654917,207.485579 80.1654917,208.695149 C80.1654917,209.904719 79.1849008,210.88531 77.9753306,210.88531 C76.7657603,210.88531 75.7851694,209.904719 75.7851694,208.695149 C75.7851694,207.485579 76.7657603,206.504988 77.9753306,206.504988 Z M37.5799959,199.474798 C40.6569421,199.474798 43.1506612,201.969682 43.1506612,205.046045 C43.1506612,208.122409 40.6569421,210.616128 37.5799959,210.616128 C34.5036322,210.616128 32.0093306,208.122409 32.0093306,205.046045 C32.0093306,201.969682 34.5036322,199.474798 37.5799959,199.474798 Z M17.6483058,206.097719 C18.857876,206.097719 19.8384669,207.07831 19.8384669,208.28788 C19.8384669,209.49745 18.857876,210.478041 17.6483058,210.478041 C16.4387355,210.478041 15.4581446,209.49745 15.4581446,208.28788 C15.4581446,207.07831 16.4387355,206.097719 17.6483058,206.097719 Z M62.8271529,200.474033 C65.3523347,200.474033 67.3991653,202.521446 67.3991653,205.046045 C67.3991653,207.570645 65.3523347,209.617475 62.8271529,209.617475 C60.3025537,209.617475 58.2557231,207.570645 58.2557231,205.046045 C58.2557231,202.521446 60.3025537,200.474033 62.8271529,200.474033 Z M233.498331,203.520099 C234.707901,203.520099 235.688492,204.50069 235.688492,205.710843 C235.688492,206.919831 234.707901,207.900421 233.498331,207.900421 C232.28876,207.900421 231.308169,206.919831 231.308169,205.710843 C231.308169,204.50069 232.28876,203.520099 233.498331,203.520099 Z M215.086178,187.586517 C219.987967,187.586517 223.961021,191.55957 223.961021,196.46136 C223.961021,201.362566 219.987967,205.33562 215.086178,205.33562 C210.185554,205.33562 206.211917,201.362566 206.211917,196.46136 C206.211917,191.55957 210.185554,187.586517 215.086178,187.586517 Z M90.5214174,194.420355 C92.9341488,194.420355 94.8895041,196.375711 94.8895041,198.788442 C94.8895041,201.200591 92.9341488,203.156529 90.5214174,203.156529 C88.1092686,203.156529 86.1533306,201.200591 86.1533306,198.788442 C86.1533306,196.375711 88.1092686,194.420355 90.5214174,194.420355 Z M106.001702,196.006897 C107.21069,196.006897 108.191281,196.98807 108.191281,198.19764 C108.191281,199.406628 107.21069,200.387802 106.001702,200.387802 C104.79155,200.387802 103.811541,199.406628 103.811541,198.19764 C103.811541,196.98807 104.79155,196.006897 106.001702,196.006897 Z M119.636169,191.258343 C122.131054,191.258343 124.153996,193.281285 124.153996,195.776169 C124.153996,198.271054 122.131054,200.293413 119.636169,200.293413 C117.141285,200.293413 115.118343,198.271054 115.118343,195.776169 C115.118343,193.281285 117.141285,191.258343 119.636169,191.258343 Z M259.490107,194.21876 C260.699678,194.21876 261.680269,195.199351 261.680269,196.408921 C261.680269,197.618492 260.699678,198.5985 259.490107,198.5985 C258.280537,198.5985 257.299946,197.618492 257.299946,196.408921 C257.299946,195.199351 258.280537,194.21876 259.490107,194.21876 Z M243.075843,183.107145 C247.333227,183.107145 250.784231,186.557566 250.784231,190.81495 C250.784231,195.072335 247.333227,198.523339 243.075843,198.523339 C238.819041,198.523339 235.367455,195.072335 235.367455,190.81495 C235.367455,186.557566 238.819041,183.107145 243.075843,183.107145 Z M142.64131,190.014979 C144.62638,190.014979 146.235645,191.624244 146.235645,193.609314 C146.235645,195.594384 144.62638,197.204231 142.64131,197.204231 C140.655657,197.204231 139.046393,195.594384 139.046393,193.609314 C139.046393,191.624244 140.655657,190.014979 142.64131,190.014979 Z M192.086864,186.718959 C194.462888,186.718959 196.389112,188.645182 196.389112,191.021789 C196.389112,193.397814 194.462888,195.323455 192.086864,195.323455 C189.710839,195.323455 187.784616,193.397814 187.784616,191.021789 C187.784616,188.645182 189.710839,186.718959 192.086864,186.718959 Z M171.700128,179.434736 C176.043744,179.434736 179.565248,182.95624 179.565248,187.300438 C179.565248,191.644636 176.043744,195.16614 171.700128,195.16614 C167.35593,195.16614 163.834426,191.644636 163.834426,187.300438 C163.834426,182.95624 167.35593,179.434736 171.700128,179.434736 Z M44.2238926,188.239079 C45.4334628,188.239079 46.4146364,189.219669 46.4146364,190.42924 C46.4146364,191.63881 45.4334628,192.619401 44.2238926,192.619401 C43.014905,192.619401 42.0337314,191.63881 42.0337314,190.42924 C42.0337314,189.219669 43.014905,188.239079 44.2238926,188.239079 Z M59.5054959,183.492855 C61.8687025,183.492855 63.784438,185.408591 63.784438,187.771215 C63.784438,190.134421 61.8687025,192.05074 59.5054959,192.05074 C57.1422893,192.05074 55.2265537,190.134421 55.2265537,187.771215 C55.2265537,185.408591 57.1422893,183.492855 59.5054959,183.492855 Z M0.373475207,177.25681 C4.34652893,177.25681 7.56680579,180.477087 7.56680579,184.449558 C7.56680579,188.422612 4.34652893,191.642306 0.373475207,191.642306 C-3.59899587,191.642306 -6.81927273,188.422612 -6.81927273,184.449558 C-6.81927273,180.477087 -3.59899587,177.25681 0.373475207,177.25681 Z M100.869186,177.35819 C103.685107,177.35819 105.967909,179.640992 105.967909,182.456913 C105.967909,185.272835 103.685107,187.556219 100.869186,187.556219 C98.0526818,187.556219 95.7698802,185.272835 95.7698802,182.456913 C95.7698802,179.640992 98.0526818,177.35819 100.869186,177.35819 Z M79.7081157,172.05962 C83.7306942,172.05962 86.9911736,175.320099 86.9911736,179.34326 C86.9911736,183.365256 83.7306942,186.626318 79.7081157,186.626318 C75.6861198,186.626318 72.4250579,183.365256 72.4250579,179.34326 C72.4250579,175.320099 75.6861198,172.05962 79.7081157,172.05962 Z M260.81912,177.592413 C263.15436,177.592413 265.047372,179.486008 265.047372,181.821248 C265.047372,184.156488 263.15436,186.0495 260.81912,186.0495 C258.483298,186.0495 256.590285,184.156488 256.590285,181.821248 C256.590285,179.486008 258.483298,177.592413 260.81912,177.592413 Z M-25.5378967,176.204554 C-23.5528264,176.204554 -21.943562,177.813818 -21.943562,179.798888 C-21.943562,181.783959 -23.5528264,183.393223 -25.5378967,183.393223 C-27.5229669,183.393223 -29.1322314,181.783959 -29.1322314,179.798888 C-29.1322314,177.813818 -27.5229669,176.204554 -25.5378967,176.204554 Z M130.513562,157.935149 C137.077054,157.935149 142.397182,163.25586 142.397182,169.818769 C142.397182,176.38226 137.077054,181.702388 130.513562,181.702388 C123.950653,181.702388 118.629942,176.38226 118.629942,169.818769 C118.629942,163.25586 123.950653,157.935149 130.513562,157.935149 Z M210.010178,172.228004 C212.047103,172.228004 213.698318,173.879219 213.698318,175.916145 C213.698318,177.952488 212.047103,179.603702 210.010178,179.603702 C207.973252,179.603702 206.322037,177.952488 206.322037,175.916145 C206.322037,173.879219 207.973252,172.228004 210.010178,172.228004 Z M155.959401,171.467653 C158.016719,171.467653 159.684248,173.135182 159.684248,175.1925 C159.684248,177.249818 158.016719,178.916764 155.959401,178.916764 C153.902665,178.916764 152.235136,177.249818 152.235136,175.1925 C152.235136,173.135182 153.902665,171.467653 155.959401,171.467653 Z M187.655269,174.492161 C188.864839,174.492161 189.84543,175.473335 189.84543,176.682905 C189.84543,177.891893 188.864839,178.873066 187.655269,178.873066 C186.445698,178.873066 185.465107,177.891893 185.465107,176.682905 C185.465107,175.473335 186.445698,174.492161 187.655269,174.492161 Z M226.141277,173.89495 C227.350847,173.89495 228.331438,174.876124 228.331438,176.085694 C228.331438,177.294682 227.350847,178.275855 226.141277,178.275855 C224.931707,178.275855 223.951116,177.294682 223.951116,176.085694 C223.951116,174.876124 224.931707,173.89495 226.141277,173.89495 Z M45.1013554,158.537603 C50.4739215,158.537603 54.8291901,162.892872 54.8291901,168.265438 C54.8291901,173.638004 50.4739215,177.993273 45.1013554,177.993273 C39.7287893,177.993273 35.3735207,173.638004 35.3735207,168.265438 C35.3735207,162.892872 39.7287893,158.537603 45.1013554,158.537603 Z M246.201731,157.864066 C250.243537,157.864066 253.519748,161.140277 253.519748,165.182083 C253.519748,169.223888 250.243537,172.500099 246.201731,172.500099 C242.160508,172.500099 238.884298,169.223888 238.884298,165.182083 C238.884298,161.140277 242.160508,157.864066 246.201731,157.864066 Z M282.744037,158.890103 C285.851864,158.890103 288.371219,161.409459 288.371219,164.517285 C288.371219,167.625112 285.851864,170.14505 282.744037,170.14505 C279.636211,170.14505 277.116855,167.625112 277.116855,164.517285 C277.116855,161.409459 279.636211,158.890103 282.744037,158.890103 Z M20.3057479,162.916178 C22.2908182,162.916178 23.9000826,164.525442 23.9000826,166.510512 C23.9000826,168.495583 22.2908182,170.104847 20.3057479,170.104847 C18.3206777,170.104847 16.7114132,168.495583 16.7114132,166.510512 C16.7114132,164.525442 18.3206777,162.916178 20.3057479,162.916178 Z M102.481946,152.589967 C106.897227,152.589967 110.476413,156.169153 110.476413,160.584434 C110.476413,164.999715 106.897227,168.579483 102.481946,168.579483 C98.0660826,168.579483 94.4868967,164.999715 94.4868967,160.584434 C94.4868967,156.169153 98.0660826,152.589967 102.481946,152.589967 Z M266.134004,163.656136 C267.343574,163.656136 268.324165,164.636727 268.324165,165.846298 C268.324165,167.055868 267.343574,168.036459 266.134004,168.036459 C264.924434,168.036459 263.943843,167.055868 263.943843,165.846298 C263.943843,164.636727 264.924434,163.656136 266.134004,163.656136 Z M197.464091,154.292455 C200.920921,154.292455 203.723442,157.094393 203.723442,160.551806 C203.723442,164.008636 200.920921,166.81174 197.464091,166.81174 C194.006678,166.81174 191.204157,164.008636 191.204157,160.551806 C191.204157,157.094393 194.006678,154.292455 197.464091,154.292455 Z M169.416161,140.811223 C176.477231,140.811223 182.201132,146.535124 182.201132,153.595612 C182.201132,160.656682 176.477231,166.381165 169.416161,166.381165 C162.355091,166.381165 156.631773,160.656682 156.631773,153.595612 C156.631773,146.535124 162.355091,140.811223 169.416161,140.811223 Z M219.712959,155.17924 C222.679785,155.17924 225.085525,157.584979 225.085525,160.551806 C225.085525,163.518632 222.679785,165.923789 219.712959,165.923789 C216.746132,165.923789 214.340393,163.518632 214.340393,160.551806 C214.340393,157.584979 216.746132,155.17924 219.712959,155.17924 Z M5.01715289,152.811955 C7.82899587,152.811955 10.1088843,155.091843 10.1088843,157.903686 C10.1088843,160.715529 7.82899587,162.995417 5.01715289,162.995417 C2.20472727,162.995417 -0.0745785124,160.715529 -0.0745785124,157.903686 C-0.0745785124,155.091843 2.20472727,152.811955 5.01715289,152.811955 Z M79.9266074,147.488913 C83.1125083,147.488913 85.6947893,150.071194 85.6947893,153.256512 C85.6947893,156.442413 83.1125083,159.025277 79.9266074,159.025277 C76.7412893,159.025277 74.1584256,156.442413 74.1584256,153.256512 C74.1584256,150.071194 76.7412893,147.488913 79.9266074,147.488913 Z M60.2914835,150.825136 C62.0335909,150.825136 63.4453388,152.237467 63.4453388,153.979574 C63.4453388,155.722264 62.0335909,157.134012 60.2914835,157.134012 C58.549376,157.134012 57.1370455,155.722264 57.1370455,153.979574 C57.1370455,152.237467 58.549376,150.825136 60.2914835,150.825136 Z M265.482025,138.808674 C269.996938,138.808674 273.657112,142.46943 273.657112,146.984343 C273.657112,151.499256 269.996938,155.15943 265.482025,155.15943 C260.967112,155.15943 257.306938,151.499256 257.306938,146.984343 C257.306938,142.46943 260.967112,138.808674 265.482025,138.808674 Z M27.011405,149.997198 C28.2209752,149.997198 29.2015661,150.977789 29.2015661,152.18736 C29.2015661,153.39693 28.2209752,154.377521 27.011405,154.377521 C25.8018347,154.377521 24.8212438,153.39693 24.8212438,152.18736 C24.8212438,150.977789 25.8018347,149.997198 27.011405,149.997198 Z M141.429992,142.919231 C143.874186,142.919231 145.85576,144.900223 145.85576,147.344417 C145.85576,149.788612 143.874186,151.769603 141.429992,151.769603 C138.98638,151.769603 137.004806,149.788612 137.004806,147.344417 C137.004806,144.900223 138.98638,142.919231 141.429992,142.919231 Z M232.913938,144.108409 C235.012041,144.108409 236.712781,145.809731 236.712781,147.907835 C236.712781,150.005355 235.012041,151.706095 232.913938,151.706095 C230.815835,151.706095 229.115095,150.005355 229.115095,147.907835 C229.115095,145.809731 230.815835,144.108409 232.913938,144.108409 Z M209.412967,146.412769 C210.622537,146.412769 211.603128,147.39336 211.603128,148.60293 C211.603128,149.8125 210.622537,150.793091 209.412967,150.793091 C208.203397,150.793091 207.222806,149.8125 207.222806,148.60293 C207.222806,147.39336 208.203397,146.412769 209.412967,146.412769 Z M246.866529,146.381306 C248.076099,146.381306 249.05669,147.362479 249.05669,148.57205 C249.05669,149.781037 248.076099,150.762211 246.866529,150.762211 C245.656959,150.762211 244.676368,149.781037 244.676368,148.57205 C244.676368,147.362479 245.656959,146.381306 246.866529,146.381306 Z M121.452273,137.83624 C124.697021,137.83624 127.327661,140.467463 127.327661,143.712211 C127.327661,146.956959 124.697021,149.587599 121.452273,149.587599 C118.207525,149.587599 115.576884,146.956959 115.576884,143.712211 C115.576884,140.467463 118.207525,137.83624 121.452273,137.83624 Z M294.038603,143.724446 C295.248174,143.724446 296.229347,144.704455 296.229347,145.914607 C296.229347,147.124178 295.248174,148.104186 294.038603,148.104186 C292.829616,148.104186 291.848442,147.124178 291.848442,145.914607 C291.848442,144.704455 292.829616,143.724446 294.038603,143.724446 Z M194.497264,134.841446 C197.476326,134.841446 199.890806,137.255926 199.890806,140.234988 C199.890806,143.213467 197.476326,145.627946 194.497264,145.627946 C191.518785,145.627946 189.103723,143.213467 189.103723,140.234988 C189.103723,137.255926 191.518785,134.841446 194.497264,134.841446 Z M93.5086364,134.213938 C96.3076612,134.213938 98.5764793,136.482174 98.5764793,139.281198 C98.5764793,142.080223 96.3076612,144.349041 93.5086364,144.349041 C90.7101942,144.349041 88.441376,142.080223 88.441376,139.281198 C88.441376,136.482174 90.7101942,134.213938 93.5086364,134.213938 Z M17.0837231,126.680926 C21.5211446,126.680926 25.1189752,130.278174 25.1189752,134.716178 C25.1189752,139.153599 21.5211446,142.75143 17.0837231,142.75143 C12.645719,142.75143 9.04847107,139.153599 9.04847107,134.716178 C9.04847107,130.278174 12.645719,126.680926 17.0837231,126.680926 Z M48.7125868,114.205921 C56.4576818,114.205921 62.7362603,120.483917 62.7362603,128.229595 C62.7362603,135.97469 56.4576818,142.253269 48.7125868,142.253269 C40.9669091,142.253269 34.6883306,135.97469 34.6883306,128.229595 C34.6883306,120.483917 40.9669091,114.205921 48.7125868,114.205921 Z M106.055306,134.713264 C107.264876,134.713264 108.245467,135.694438 108.245467,136.904008 C108.245467,138.112996 107.264876,139.094169 106.055306,139.094169 C104.845736,139.094169 103.865145,138.112996 103.865145,136.904008 C103.865145,135.694438 104.845736,134.713264 106.055306,134.713264 Z M216.274773,127.330574 C218.995723,127.330574 221.201616,129.535884 221.201616,132.256835 C221.201616,134.978368 218.995723,137.183678 216.274773,137.183678 C213.553822,137.183678 211.34793,134.978368 211.34793,132.256835 C211.34793,129.535884 213.553822,127.330574 216.274773,127.330574 Z M134.39514,126.356975 C137.219802,126.356975 139.509595,128.646769 139.509595,131.47143 C139.509595,134.294926 137.219802,136.584719 134.39514,136.584719 C131.571062,136.584719 129.281851,134.294926 129.281851,131.47143 C129.281851,128.646769 131.571062,126.356975 134.39514,126.356975 Z M74.6402727,132.074467 C75.849843,132.074467 76.8304339,133.054475 76.8304339,134.264628 C76.8304339,135.474198 75.849843,136.454207 74.6402727,136.454207 C73.4307025,136.454207 72.4501116,135.474198 72.4501116,134.264628 C72.4501116,133.054475 73.4307025,132.074467 74.6402727,132.074467 Z M244.873302,129.113467 C246.813508,129.113467 248.386066,130.686025 248.386066,132.626231 C248.386066,134.566438 246.813508,136.138996 244.873302,136.138996 C242.933095,136.138996 241.359955,134.566438 241.359955,132.626231 C241.359955,130.686025 242.933095,129.113467 244.873302,129.113467 Z M284.07305,124.023483 C286.255636,124.023483 288.024545,125.792393 288.024545,127.975562 C288.024545,130.158149 286.255636,131.92764 284.07305,131.92764 C281.890463,131.92764 280.120971,130.158149 280.120971,127.975562 C280.120971,125.792393 281.890463,124.023483 284.07305,124.023483 Z M161.286521,116.372777 C165.258992,116.372777 168.479269,119.593054 168.479269,123.565525 C168.479269,127.537996 165.258992,130.758273 161.286521,130.758273 C157.31405,130.758273 154.093773,127.537996 154.093773,123.565525 C154.093773,119.593054 157.31405,116.372777 161.286521,116.372777 Z M230.256496,126.475835 C231.347207,126.475835 232.231079,127.360289 232.231079,128.451 C232.231079,129.541128 231.347207,130.425583 230.256496,130.425583 C229.165785,130.425583 228.281331,129.541128 228.281331,128.451 C228.281331,127.360289 229.165785,126.475835 230.256496,126.475835 Z M115.906079,115.861798 C119.562756,115.861798 122.527252,118.825711 122.527252,122.482388 C122.527252,126.139066 119.562756,129.103562 115.906079,129.103562 C112.249401,129.103562 109.284905,126.139066 109.284905,122.482388 C109.284905,118.825711 112.249401,115.861798 115.906079,115.861798 Z M262.14755,117.34055 C265.085826,117.34055 267.467678,119.722401 267.467678,122.660678 C267.467678,125.598372 265.085826,127.980223 262.14755,127.980223 C259.209273,127.980223 256.827421,125.598372 256.827421,122.660678 C256.827421,119.722401 259.209273,117.34055 262.14755,117.34055 Z M99.483657,123.460649 C100.692645,123.460649 101.673236,124.440657 101.673236,125.650227 C101.673236,126.86038 100.692645,127.840388 99.483657,127.840388 C98.2735041,127.840388 97.2929132,126.86038 97.2929132,125.650227 C97.2929132,124.440657 98.2735041,123.460649 99.483657,123.460649 Z M181.430876,117.934264 C183.731157,117.934264 185.59562,119.79931 185.59562,122.100174 C185.59562,124.399872 183.731157,126.264917 181.430876,126.264917 C179.130595,126.264917 177.26555,124.399872 177.26555,122.100174 C177.26555,119.79931 179.130595,117.934264 181.430876,117.934264 Z M201.010066,113.375653 C204.452913,113.375653 207.243781,116.167103 207.243781,119.60995 C207.243781,123.052798 204.452913,125.844248 201.010066,125.844248 C197.566636,125.844248 194.775769,123.052798 194.775769,119.60995 C194.775769,116.167103 197.566636,113.375653 201.010066,113.375653 Z M81.7497025,114.029963 C84.942595,114.029963 87.5312851,116.61807 87.5312851,119.811545 C87.5312851,123.003855 84.942595,125.592545 81.7497025,125.592545 C78.5568099,125.592545 75.9681198,123.003855 75.9681198,119.811545 C75.9681198,116.61807 78.5568099,114.029963 81.7497025,114.029963 Z M143.694149,118.680632 C144.903719,118.680632 145.88431,119.661223 145.88431,120.870793 C145.88431,122.080364 144.903719,123.060955 143.694149,123.060955 C142.484579,123.060955 141.503988,122.080364 141.503988,120.870793 C141.503988,119.661223 142.484579,118.680632 143.694149,118.680632 Z M240.886847,107.298087 C244.233558,107.298087 246.946934,110.012045 246.946934,113.358756 C246.946934,116.705467 244.233558,119.418843 240.886847,119.418843 C237.540136,119.418843 234.82676,116.705467 234.82676,113.358756 C234.82676,110.012045 237.540136,107.298087 240.886847,107.298087 Z M220.331145,111.543818 C222.382636,111.543818 224.045504,113.207269 224.045504,115.25876 C224.045504,117.310252 222.382636,118.97312 220.331145,118.97312 C218.279653,118.97312 216.616202,117.310252 216.616202,115.25876 C216.616202,113.207269 218.279653,111.543818 220.331145,111.543818 Z M28.3876116,106.825562 C30.0137727,106.825562 31.3317149,108.142921 31.3317149,109.769665 C31.3317149,111.395244 30.0137727,112.713186 28.3876116,112.713186 C26.7620331,112.713186 25.4435083,111.395244 25.4435083,109.769665 C25.4435083,108.142921 26.7620331,106.825562 28.3876116,106.825562 Z M180.780645,107.014921 C181.990215,107.014921 182.970806,107.995512 182.970806,109.205083 C182.970806,110.414653 181.990215,111.395244 180.780645,111.395244 C179.571074,111.395244 178.590483,110.414653 178.590483,109.205083 C178.590483,107.995512 179.571074,107.014921 180.780645,107.014921 Z M136.58705,98.9103347 C139.932595,98.9103347 142.644223,101.621963 142.644223,104.966926 C142.644223,108.312471 139.932595,111.024099 136.58705,111.024099 C133.242087,111.024099 130.529876,108.312471 130.529876,104.966926 C130.529876,101.621963 133.242087,98.9103347 136.58705,98.9103347 Z M-16.4894256,105.78088 C-15.3987149,105.78088 -14.5142603,106.664752 -14.5142603,107.755463 C-14.5142603,108.846174 -15.3987149,109.730045 -16.4894256,109.730045 C-17.5801364,109.730045 -18.4645909,108.846174 -18.4645909,107.755463 C-18.4645909,106.664752 -17.5801364,105.78088 -16.4894256,105.78088 Z M64.5453719,99.1620372 C67.4166446,99.1620372 69.7448926,101.490285 69.7448926,104.361558 C69.7448926,107.232831 67.4166446,109.561079 64.5453719,109.561079 C61.6740992,109.561079 59.3464339,107.232831 59.3464339,104.361558 C59.3464339,101.490285 61.6740992,99.1620372 64.5453719,99.1620372 Z M288.059504,103.859901 C289.269074,103.859901 290.249665,104.841074 290.249665,106.050645 C290.249665,107.259632 289.269074,108.240223 288.059504,108.240223 C286.849934,108.240223 285.869343,107.259632 285.869343,106.050645 C285.869343,104.841074 286.849934,103.859901 288.059504,103.859901 Z M154.568628,101.716351 C156.310153,101.716351 157.722483,103.128682 157.722483,104.870789 C157.722483,106.613479 156.310153,108.025227 154.568628,108.025227 C152.826521,108.025227 151.41419,106.613479 151.41419,104.870789 C151.41419,103.128682 152.826521,101.716351 154.568628,101.716351 Z M100.250417,87.3535785 C105.948099,87.3535785 110.566723,91.9727851 110.566723,97.6698843 C110.566723,103.367566 105.948099,107.98619 100.250417,107.98619 C94.5527355,107.98619 89.9341116,103.367566 89.9341116,97.6698843 C89.9341116,91.9727851 94.5527355,87.3535785 100.250417,87.3535785 Z M196.634405,90.0331612 C201.016475,90.0331612 204.569442,93.5861281 204.569442,97.968781 C204.569442,102.350851 201.016475,105.903818 196.634405,105.903818 C192.251752,105.903818 188.699368,102.350851 188.699368,97.968781 C188.699368,93.5861281 192.251752,90.0331612 196.634405,90.0331612 Z M4.33662397,99.2575909 C5.96278512,99.2575909 7.28072727,100.576116 7.28072727,102.201694 C7.28072727,103.827273 5.96278512,105.145798 4.33662397,105.145798 C2.71104545,105.145798 1.39310331,103.827273 1.39310331,102.201694 C1.39310331,100.576116 2.71104545,99.2575909 4.33662397,99.2575909 Z M263.397905,79.0264215 C270.522483,79.0264215 276.29824,84.801595 276.29824,91.9261736 C276.29824,99.0513347 270.522483,104.827091 263.397905,104.827091 C256.272744,104.827091 250.49757,99.0513347 250.49757,91.9261736 C250.49757,84.801595 256.272744,79.0264215 263.397905,79.0264215 Z M226.078934,90.5726901 C229.985566,90.5726901 233.152822,93.7399463 233.152822,97.6465785 C233.152822,101.553793 229.985566,104.720467 226.078934,104.720467 C222.171719,104.720467 219.004463,101.553793 219.004463,97.6465785 C219.004463,93.7399463 222.171719,90.5726901 226.078934,90.5726901 Z M43.2211612,95.6568471 C45.7137149,95.6568471 47.7337438,97.6774587 47.7337438,100.16943 C47.7337438,102.661401 45.7137149,104.682012 43.2211612,104.682012 C40.7291901,104.682012 38.7085785,102.661401 38.7085785,100.16943 C38.7085785,97.6774587 40.7291901,95.6568471 43.2211612,95.6568471 Z M28.1260041,88.6651116 C30.9850413,88.6651116 33.302219,90.9822893 33.302219,93.8413264 C33.302219,96.7003636 30.9850413,99.0175413 28.1260041,99.0175413 C25.2669669,99.0175413 22.9492066,96.7003636 22.9492066,93.8413264 C22.9492066,90.9822893 25.2669669,88.6651116 28.1260041,88.6651116 Z M168.067339,83.2855537 C172.351525,83.2855537 175.824669,86.7586983 175.824669,91.0428843 C175.824669,95.3270702 172.351525,98.8002149 168.067339,98.8002149 C163.783153,98.8002149 160.310008,95.3270702 160.310008,91.0428843 C160.310008,86.7586983 163.783153,83.2855537 168.067339,83.2855537 Z M149.300355,87.9041777 C150.391066,87.9041777 151.274938,88.7886322 151.274938,89.879343 C151.274938,90.9700537 150.391066,91.8539256 149.300355,91.8539256 C148.209645,91.8539256 147.325773,90.9700537 147.325773,89.879343 C147.325773,88.7886322 148.209645,87.9041777 149.300355,87.9041777 Z M126.534682,71.4240744 C131.703905,71.4240744 135.894285,75.6138719 135.894285,80.783095 C135.894285,85.9523182 131.703905,90.1426983 126.534682,90.1426983 C121.366041,90.1426983 117.175661,85.9523182 117.175661,80.783095 C117.175661,75.6138719 121.366041,71.4240744 126.534682,71.4240744 Z M59.4548058,78.3680331 C62.6086612,78.3680331 65.1658884,80.9252603 65.1658884,84.0791157 C65.1658884,87.2335537 62.6086612,89.7901983 59.4548058,89.7901983 C56.3003678,89.7901983 53.7437231,87.2335537 53.7437231,84.0791157 C53.7437231,80.9252603 56.3003678,78.3680331 59.4548058,78.3680331 Z M-15.7949132,83.5663884 C-14.7047851,83.5663884 -13.8203306,84.4502603 -13.8203306,85.5409711 C-13.8203306,86.6316818 -14.7047851,87.5155537 -15.7949132,87.5155537 C-16.8862066,87.5155537 -17.7700785,86.6316818 -17.7700785,85.5409711 C-17.7700785,84.4502603 -16.8862066,83.5663884 -15.7949132,83.5663884 Z M40.8550413,82.7011612 C41.9457521,82.7011612 42.8302066,83.5856157 42.8302066,84.6763264 C42.8302066,85.7670372 41.9457521,86.6514917 40.8550413,86.6514917 C39.7643306,86.6514917 38.8804587,85.7670372 38.8804587,84.6763264 C38.8804587,83.5856157 39.7643306,82.7011612 40.8550413,82.7011612 Z M82.0969587,72.0725579 C85.2374132,72.0725579 87.7835702,74.6181322 87.7835702,77.7591694 C87.7835702,80.899624 85.2374132,83.445781 82.0969587,83.445781 C78.9565041,83.445781 76.4103471,80.899624 76.4103471,77.7591694 C76.4103471,74.6181322 78.9565041,72.0725579 82.0969587,72.0725579 Z M214.660264,59.5655083 C221.145682,59.5655083 226.403467,64.8232934 226.403467,71.3087107 C226.403467,77.7947107 221.145682,83.0519132 214.660264,83.0519132 C208.174847,83.0519132 202.917645,77.7947107 202.917645,71.3087107 C202.917645,64.8232934 208.174847,59.5655083 214.660264,59.5655083 Z M186.228955,71.5831364 C189.286674,71.5831364 191.764661,74.0617066 191.764661,77.118843 C191.764661,80.1759793 189.286674,82.6545496 186.228955,82.6545496 C183.171818,82.6545496 180.693248,80.1759793 180.693248,77.118843 C180.693248,74.0617066 183.171818,71.5831364 186.228955,71.5831364 Z M240.886847,74.6262893 C242.096417,74.6262893 243.077008,75.6074628 243.077008,76.8164504 C243.077008,78.0260207 242.096417,79.0071942 240.886847,79.0071942 C239.677277,79.0071942 238.696686,78.0260207 238.696686,76.8164504 C238.696686,75.6074628 239.677277,74.6262893 240.886847,74.6262893 Z M155.354033,72.1483017 C157.09614,72.1483017 158.508471,73.5606322 158.508471,75.3027397 C158.508471,77.0448471 157.09614,78.4571777 155.354033,78.4571777 C153.611926,78.4571777 152.200178,77.0448471 152.200178,75.3027397 C152.200178,73.5606322 153.611926,72.1483017 155.354033,72.1483017 Z M105.027521,65.5399463 C107.439087,65.5399463 109.39386,67.4953017 109.39386,69.9068678 C109.39386,72.3184339 107.439087,74.2737893 105.027521,74.2737893 C102.615372,74.2737893 100.660599,72.3184339 100.660599,69.9068678 C100.660599,67.4953017 102.615372,65.5399463 105.027521,65.5399463 Z M308.655409,69.311405 C309.865562,69.311405 310.84557,70.2919959 310.84557,71.5015661 C310.84557,72.7111364 309.865562,73.6917273 308.655409,73.6917273 C307.445839,73.6917273 306.465831,72.7111364 306.465831,71.5015661 C306.465831,70.2919959 307.445839,69.311405 308.655409,69.311405 Z M171.598748,65.9594504 C172.808318,65.9594504 173.788909,66.9400413 173.788909,68.1496116 C173.788909,69.3591818 172.808318,70.3397727 171.598748,70.3397727 C170.389178,70.3397727 169.408587,69.3591818 169.408587,68.1496116 C169.408587,66.9400413 170.389178,65.9594504 171.598748,65.9594504 Z M62.1239008,54.1037975 C66.1418182,54.1037975 69.3988017,57.360781 69.3988017,61.3786983 C69.3988017,65.3966157 66.1418182,68.6535992 62.1239008,68.6535992 C58.1059835,68.6535992 54.849,65.3966157 54.849,61.3786983 C54.849,57.360781 58.1059835,54.1037975 62.1239008,54.1037975 Z M282.744037,61.2633347 C284.729107,61.2633347 286.338372,62.8720165 286.338372,64.8570868 C286.338372,66.8427397 284.729107,68.4514215 282.744037,68.4514215 C280.758967,68.4514215 279.149702,66.8427397 279.149702,64.8570868 C279.149702,62.8720165 280.758967,61.2633347 282.744037,61.2633347 Z M40.9022355,63.3317231 C42.1118058,63.3317231 43.0923967,64.312314 43.0923967,65.5218843 C43.0923967,66.7314545 42.1118058,67.7120455 40.9022355,67.7120455 C39.6926653,67.7120455 38.7120744,66.7314545 38.7120744,65.5218843 C38.7120744,64.312314 39.6926653,63.3317231 40.9022355,63.3317231 Z M142.593533,59.0405455 C144.219694,59.0405455 145.537636,60.3584876 145.537636,61.9840661 C145.537636,63.6102273 144.219694,64.9281694 142.593533,64.9281694 C140.967372,64.9281694 139.64943,63.6102273 139.64943,61.9840661 C139.64943,60.3584876 140.967372,59.0405455 142.593533,59.0405455 Z M254.459554,38.493 C261.520041,38.493 267.244525,44.2174835 267.244525,51.2785537 C267.244525,58.3390413 261.520041,64.0629421 254.459554,64.0629421 C247.398483,64.0629421 241.674583,58.3390413 241.674583,51.2785537 C241.674583,44.2174835 247.398483,38.493 254.459554,38.493 Z M117.820066,56.7973636 C119.538868,56.7973636 120.932554,58.1910496 120.932554,59.9098512 C120.932554,61.6286529 119.538868,63.0223388 117.820066,63.0223388 C116.101264,63.0223388 114.707579,61.6286529 114.707579,59.9098512 C114.707579,58.1910496 116.101264,56.7973636 117.820066,56.7973636 Z M19.6415331,47.0258306 C23.9851488,47.0258306 27.5066529,50.5473347 27.5066529,54.8915331 C27.5066529,59.2351488 23.9851488,62.7566529 19.6415331,62.7566529 C15.2973347,62.7566529 11.7758306,59.2351488 11.7758306,54.8915331 C11.7758306,50.5473347 15.2973347,47.0258306 19.6415331,47.0258306 Z M162.619029,43.9343182 C166.903798,43.9343182 170.376942,47.4080455 170.376942,51.692814 C170.376942,55.977 166.903798,59.4507273 162.619029,59.4507273 C158.33426,59.4507273 154.861116,55.977 154.861116,51.692814 C154.861116,47.4080455 158.33426,43.9343182 162.619029,43.9343182 Z M87.5505124,37.9243388 C93.483,37.9243388 98.2921488,42.7334876 98.2921488,48.6653926 C98.2921488,54.5978802 93.483,59.4070289 87.5505124,59.4070289 C81.6180248,59.4070289 76.808876,54.5978802 76.808876,48.6653926 C76.808876,42.7334876 81.6180248,37.9243388 87.5505124,37.9243388 Z M192.888583,39.586624 C197.233946,39.586624 200.756616,43.1092934 200.756616,47.454657 C200.756616,51.8000207 197.233946,55.3226901 192.888583,55.3226901 C188.543219,55.3226901 185.02055,51.8000207 185.02055,47.454657 C185.02055,43.1092934 188.543219,39.586624 192.888583,39.586624 Z M297.409202,41.1108223 C300.617244,41.1108223 303.217004,43.7111653 303.217004,46.9180413 C303.217004,50.1260826 300.617244,52.7264256 297.409202,52.7264256 C294.201744,52.7264256 291.601401,50.1260826 291.601401,46.9180413 C291.601401,43.7111653 294.201744,41.1108223 297.409202,41.1108223 Z M111.373103,46.4140537 C112.616467,46.4140537 113.625025,47.4220289 113.625025,48.6653926 C113.625025,49.9087562 112.616467,50.917314 111.373103,50.917314 C110.12974,50.917314 109.121764,49.9087562 109.121764,48.6653926 C109.121764,47.4220289 110.12974,46.4140537 111.373103,46.4140537 Z M132.954843,25.7418223 C139.596992,25.7418223 144.981793,31.1260413 144.981793,37.7681901 C144.981793,44.4109215 139.596992,49.7957231 132.954843,49.7957231 C126.312112,49.7957231 120.92731,44.4109215 120.92731,37.7681901 C120.92731,31.1260413 126.312112,25.7418223 132.954843,25.7418223 Z M60.8345083,31.126624 C64.1083884,31.126624 66.7629174,33.7811529 66.7629174,37.0556157 C66.7629174,40.3294959 64.1083884,42.9834421 60.8345083,42.9834421 C57.5600455,42.9834421 54.9055165,40.3294959 54.9055165,37.0556157 C54.9055165,33.7811529 57.5600455,31.126624 60.8345083,31.126624 Z M161.408293,25.2838636 C164.625657,25.2838636 167.234157,27.891781 167.234157,31.1097273 C167.234157,34.3265083 164.625657,36.9355909 161.408293,36.9355909 C158.190347,36.9355909 155.58243,34.3265083 155.58243,31.1097273 C155.58243,27.891781 158.190347,25.2838636 161.408293,25.2838636 Z M214.310678,17.8324215 C217.53212,17.8324215 220.143533,20.4432521 220.143533,23.6641116 C220.143533,26.8861364 217.53212,29.4969669 214.310678,29.4969669 C211.089818,29.4969669 208.478405,26.8861364 208.478405,23.6641116 C208.478405,20.4432521 211.089818,17.8324215 214.310678,17.8324215 Z M105.998789,10.1170413 C110.62324,10.1170413 114.371975,13.8663595 114.371975,18.4908099 C114.371975,23.1152603 110.62324,26.8639959 105.998789,26.8639959 C101.374339,26.8639959 97.6256033,23.1152603 97.6256033,18.4908099 C97.6256033,13.8663595 101.374339,10.1170413 105.998789,10.1170413 Z M71.2539421,11.4425579 C73.2390124,11.4425579 74.8482769,13.0512397 74.8482769,15.0368926 C74.8482769,17.0219628 73.2390124,18.6312273 71.2539421,18.6312273 C69.2682893,18.6312273 67.6590248,17.0219628 67.6590248,15.0368926 C67.6590248,13.0512397 69.2682893,11.4425579 71.2539421,11.4425579 Z M171.598748,13.3489711 C172.808318,13.3489711 173.788909,14.3301446 173.788909,15.5397149 C173.788909,16.7487025 172.808318,17.729876 171.598748,17.729876 C170.389178,17.729876 169.408587,16.7487025 169.408587,15.5397149 C169.408587,14.3301446 170.389178,13.3489711 171.598748,13.3489711 Z M36.994438,6.2144876 C38.2040083,6.2144876 39.1845992,7.19507851 39.1845992,8.40464876 C39.1845992,9.61421901 38.2040083,10.5948099 36.994438,10.5948099 C35.7848678,10.5948099 34.8042769,9.61421901 34.8042769,8.40464876 C34.8042769,7.19507851 35.7848678,6.2144876 36.994438,6.2144876 Z M205.673554,5.60911983 C206.883124,5.60911983 207.863715,6.58971074 207.863715,7.79928099 C207.863715,9.00885124 206.883124,9.98944215 205.673554,9.98944215 C204.463983,9.98944215 203.483393,9.00885124 203.483393,7.79928099 C203.483393,6.58971074 204.463983,5.60911983 205.673554,5.60911983 Z M129.884888,-1.99382031e-13 C132.563888,-1.99382031e-13 134.735405,2.17209917 134.735405,4.85051653 C134.735405,7.52951653 132.563888,9.70103306 129.884888,9.70103306 C127.205888,9.70103306 125.034372,7.52951653 125.034372,4.85051653 C125.034372,2.17209917 127.205888,-1.99382031e-13 129.884888,-1.99382031e-13 Z M235.57138,0.213247934 C236.781533,0.213247934 237.761541,1.19442149 237.761541,2.40340909 C237.761541,3.61297934 236.781533,4.59415289 235.57138,4.59415289 C234.36181,4.59415289 233.381219,3.61297934 233.381219,2.40340909 C233.381219,1.19442149 234.36181,0.213247934 235.57138,0.213247934 Z" id="Circles" fill="url(#linearGradient-2)"></path>
                        </g>
                    </g>
                </g>
            </g>
        </g>
    </g>
</svg>