<?xml version="1.0" encoding="UTF-8"?>
<svg width="24px" height="24px" viewBox="0 0 24 24" version="1.1" xmlns="http://www.w3.org/2000/svg" xmlns:xlink="http://www.w3.org/1999/xlink">
    <title>🎨 Icon color</title>
    <g id="Rate-Calculator" stroke="none" stroke-width="1" fill="none" fill-rule="evenodd">
        <g id="YIELD-Calculator-InPage" transform="translate(-356.000000, -673.000000)" fill="#9F72FF">
            <g id="Group-2" transform="translate(356.000000, 645.000000)">
                <g id="cells/checked" transform="translate(0.000000, 28.000000)">
                    <path d="M12,0 C18.627417,-1.21743675e-15 24,5.372583 24,12 C24,18.627417 18.627417,24 12,24 C5.372583,24 8.11624501e-16,18.627417 0,12 C-8.11624501e-16,5.372583 5.372583,1.21743675e-15 12,0 Z M17.5278263,7.4459199 C17.0009024,7.04395252 16.2478873,7.14524979 15.8459199,7.67217368 L15.8459199,7.67217368 L10.3224069,14.9127387 L8.09788071,12.403878 C7.65819468,11.9079922 6.89976383,11.8624333 6.40387801,12.3021193 C5.90799218,12.7418053 5.86243325,13.5002362 6.30211929,13.996122 L6.30211929,13.996122 L9.49412368,17.596122 C9.99531939,18.1613795 10.8878841,18.128464 11.3460845,17.5278263 L11.3460845,17.5278263 L17.7540801,9.12782632 C18.1560475,8.60090243 18.0547502,7.84788728 17.5278263,7.4459199 Z" id="🎨-Icon-color"></path>
                </g>
            </g>
        </g>
    </g>
</svg>