<svg xmlns="http://www.w3.org/2000/svg" width="10" height="10" viewBox="0 0 10 10">
  <g fill="#FFF" fill-rule="evenodd">
    <path d="M8.75,6.5625 C8.75,6.21732203 9.02982203,5.9375 9.375,5.9375 C9.72017797,5.9375 10,6.21732203 10,6.5625 L10,9.375 C10,9.72017797 9.72017797,10 9.375,10 L0.625,10 C0.279822031,10 0,9.72017797 0,9.375 L0,0.625 C0,0.279822031 0.279822031,3.7658765e-12 0.625,3.7658765e-12 L3.4375,3.7658765e-12 C3.78267797,3.7658765e-12 4.0625,0.279822031 4.0625,0.625 C4.0625,0.970177969 3.78267797,1.25 3.4375,1.25 L1.25,1.25 L1.25,8.75 L8.75,8.75 L8.75,6.5625 Z"/>
    <path d="M8.75,2.13388348 L4.81694174,6.06694174 C4.57286406,6.31101942 4.17713594,6.31101942 3.93305826,6.06694174 C3.68898058,5.82286406 3.68898058,5.42713594 3.93305826,5.18305826 L7.86611652,1.25 L6.5625,1.25 C6.21732203,1.25 5.9375,0.970177969 5.9375,0.625 C5.9375,0.279822031 6.21732203,0 6.5625,0 L9.375,0 C9.72017797,0 10,0.279822031 10,0.625 L10,3.4375 C10,3.78267797 9.72017797,4.0625 9.375,4.0625 C9.02982203,4.0625 8.75,3.78267797 8.75,3.4375 L8.75,2.13388348 Z"/>
  </g>
</svg>
